<svg width="44" height="44" viewBox="0 0 44 44" fill="none" xmlns="http://www.w3.org/2000/svg">
<circle cx="22" cy="22" r="22" fill="#DBF1FF"/>
<path fill-rule="evenodd" clip-rule="evenodd" d="M24.3302 14.7285L23.6591 15.6028C24.7701 16.2285 25.5494 17.3741 25.6602 18.712H17.8018C17.9126 17.3741 18.6918 16.2285 19.8029 15.6032L19.1318 14.7289C19.0765 14.6569 19.09 14.5536 19.162 14.4984C19.2347 14.4435 19.3376 14.4569 19.3925 14.5286L20.1011 15.4516C20.5982 15.225 21.1487 15.0952 21.731 15.0952C22.3133 15.0952 22.8637 15.225 23.3609 15.4512L24.0694 14.5283C24.1247 14.4566 24.2279 14.4421 24.2999 14.498C24.3719 14.5533 24.3854 14.6565 24.3302 14.7285ZM19.9226 17.3968C20.1949 17.3968 20.4158 17.176 20.4158 16.9036C20.4158 16.6312 20.1949 16.4104 19.9226 16.4104C19.6502 16.4104 19.4293 16.6312 19.4293 16.9036C19.4293 17.176 19.6502 17.3968 19.9226 17.3968ZM24.0326 16.9036C24.0326 17.176 23.8118 17.3968 23.5394 17.3968C23.267 17.3968 23.0462 17.176 23.0462 16.9036C23.0462 16.6312 23.267 16.4104 23.5394 16.4104C23.8118 16.4104 24.0326 16.6312 24.0326 16.9036ZM15.8125 23.4797C15.8125 23.9337 16.1804 24.3017 16.6345 24.3017C17.0886 24.3017 17.4565 23.9337 17.4565 23.4797V19.8628C17.4565 19.4087 17.0886 19.0408 16.6345 19.0408C16.1804 19.0408 15.8125 19.4087 15.8125 19.8628V23.4797ZM26.0054 23.4797C26.0054 23.9337 26.3734 24.3017 26.8274 24.3017C27.2815 24.3017 27.6495 23.9337 27.6495 23.4797V19.8628C27.6495 19.4087 27.2815 19.0408 26.8274 19.0408C26.3734 19.0408 26.0054 19.4087 26.0054 19.8628V23.4797ZM17.7853 19.0408V25.9457C17.7853 26.309 18.0796 26.6033 18.4429 26.6033H19.1005V28.7405C19.1005 29.1946 19.4685 29.5625 19.9226 29.5625C20.3766 29.5625 20.7446 29.1946 20.7446 28.7405V26.6033H22.7174V28.7405C22.7174 29.1946 23.0853 29.5625 23.5394 29.5625C23.9935 29.5625 24.3614 29.1946 24.3614 28.7405V26.6033H25.019C25.3823 26.6033 25.6766 26.309 25.6766 25.9457V19.0408H17.7853Z" fill="#10519C"/>
</svg>
