<svg width="901" height="1080" viewBox="0 0 901 1080" fill="none" xmlns="http://www.w3.org/2000/svg">
<rect width="901" height="1080" fill="#F1F8FD"/>
<path d="M871.22 1091.11C871.22 1082.3 869.484 1073.57 866.111 1065.43C862.739 1057.29 857.795 1049.89 851.564 1043.66C845.332 1037.42 837.934 1032.48 829.792 1029.11C821.65 1025.74 812.923 1024 804.11 1024C795.297 1024 786.57 1025.74 778.428 1029.11C770.286 1032.48 762.888 1037.42 756.656 1043.66C750.424 1049.89 745.481 1057.29 742.108 1065.43C738.736 1073.57 737 1082.3 737 1091.11L804.11 1091.11H871.22Z" fill="#D3E6FA"/>
<path d="M6.13428 429.381L230.513 583.319C232.202 584.484 233.364 586.267 233.745 588.278C234.125 590.289 233.693 592.364 232.543 594.049L79.5057 817.115C78.3471 818.795 76.5667 819.945 74.5537 820.313C72.5407 820.682 70.459 820.24 68.7637 819.083L-31.7201 750.145L-1.27971 705.775L52.277 742.518C53.2635 743.192 54.4751 743.45 55.6467 743.235C56.8182 743.021 57.8544 742.351 58.5284 741.373L147.586 611.564C148.255 610.583 148.507 609.376 148.286 608.205C148.064 607.035 147.388 605.997 146.404 605.32L15.8474 515.749C14.8609 515.076 13.6493 514.818 12.4777 515.033C11.3061 515.247 10.27 515.917 9.59601 516.894L-38.6879 587.273L-85.128 555.412C-86.1852 554.704 -87.3052 554.094 -88.4736 553.591L-4.60769 431.349C-3.44909 429.669 -1.66868 428.519 0.34427 428.151C2.35722 427.782 4.43894 428.225 6.13428 429.381V429.381ZM-60.0347 730.707L-147.835 670.471L-93.43 591.17L-58.0177 615.465L-79.4532 646.709C-80.1229 647.69 -80.3745 648.898 -80.1531 650.068C-79.9316 651.238 -79.2551 652.276 -78.2715 652.954L-29.5836 686.357L-60.0347 730.707Z" fill="white"/>
<path d="M150.256 1069H53.7442C53.0164 1069 52.3184 1069.09 51.8038 1069.26C51.2891 1069.43 51 1069.65 51 1069.89V1101.11C51 1101.35 51.2891 1101.57 51.8038 1101.74C52.3184 1101.91 53.0164 1102 53.7442 1102H150.256C150.984 1102 151.682 1101.91 152.196 1101.74C152.711 1101.57 153 1101.35 153 1101.11V1069.89C153 1069.65 152.711 1069.43 152.196 1069.26C151.682 1069.09 150.984 1069 150.256 1069Z" fill="#F8425F"/>
<path d="M87.3807 914.067L38.3929 997.221C38.0235 997.848 37.9164 998.595 38.0953 999.298C38.2742 1000 38.7243 1000.6 39.3467 1000.97L121.88 1049.59C122.502 1049.96 123.246 1050.06 123.947 1049.88C124.649 1049.69 125.25 1049.24 125.619 1048.61L174.607 965.455C174.977 964.828 175.084 964.081 174.905 963.378C174.726 962.675 174.276 962.074 173.653 961.708L91.1204 913.086C90.498 912.719 89.7543 912.616 89.053 912.801C88.3517 912.985 87.7501 913.44 87.3807 914.067Z" fill="#F8425F"/>
<path d="M224.22 -15.8902C224.22 -7.07719 222.484 1.64951 219.111 9.79164C215.739 17.9338 210.795 25.3319 204.564 31.5636C198.332 37.7954 190.934 42.7386 182.792 46.1112C174.65 49.4838 165.923 51.2197 157.11 51.2197C148.297 51.2197 139.57 49.4838 131.428 46.1112C123.286 42.7386 115.888 37.7954 109.656 31.5636C103.424 25.3319 98.481 17.9338 95.1084 9.79164C91.7358 1.6495 90 -7.07719 90 -15.8902L157.11 -15.8902H224.22Z" fill="#71B9F0"/>
</svg>
