<svg width="196" height="89" viewBox="0 0 196 89" fill="none" xmlns="http://www.w3.org/2000/svg">
<path d="M3.12565 88.4319C2.02188 88.4739 1.09302 87.6132 1.05099 86.5094L0.366089 68.5224C0.32406 67.4187 1.18477 66.4898 2.28854 66.4478C3.39231 66.4058 4.32116 67.2665 4.36319 68.3702L4.972 84.3587L20.9604 83.7499C22.0642 83.7078 22.993 84.5685 23.0351 85.6723C23.0771 86.7761 22.2164 87.7049 21.1126 87.747L3.12565 88.4319ZM140.093 51.5088L142.073 51.79L142.073 51.79L140.093 51.5088ZM42.8775 53.9585L43.7649 55.7508L42.8775 53.9585ZM141.776 13.3728L142.577 15.2056L141.776 13.3728ZM79.8321 72.2059L78.4321 73.6342L78.4321 73.6342L79.8321 72.2059ZM3.04955 86.4333C1.58255 85.0739 1.58257 85.0739 1.5826 85.0739C1.58261 85.0739 1.58264 85.0738 1.58266 85.0738C1.58271 85.0738 1.58276 85.0737 1.58282 85.0736C1.58295 85.0735 1.58311 85.0733 1.5833 85.0731C1.58367 85.0727 1.58418 85.0722 1.58481 85.0715C1.58608 85.0701 1.58786 85.0682 1.59015 85.0657C1.59472 85.0608 1.60132 85.0537 1.60994 85.0445C1.62716 85.026 1.65241 84.9989 1.68551 84.9635C1.7517 84.8927 1.84927 84.7886 1.97673 84.6536C2.23163 84.3835 2.60611 83.9893 3.08819 83.4888L5.96903 86.2638C5.49698 86.7539 5.13193 87.1382 4.88583 87.3989C4.76278 87.5293 4.66949 87.6288 4.60744 87.6952C4.57642 87.7284 4.55321 87.7533 4.53799 87.7696C4.53039 87.7778 4.52478 87.7838 4.5212 87.7877C4.51941 87.7896 4.51812 87.791 4.51735 87.7918C4.51696 87.7922 4.5167 87.7925 4.51656 87.7927C4.5165 87.7927 4.51646 87.7928 4.51646 87.7928C4.51646 87.7928 4.51646 87.7928 4.51648 87.7928C4.51649 87.7928 4.5165 87.7927 4.51651 87.7927C4.51653 87.7927 4.51655 87.7927 3.04955 86.4333ZM6.12634 80.3966C7.04315 79.4803 8.07918 78.459 9.21582 77.3603L11.9958 80.2364C10.8765 81.3183 9.85636 82.3239 8.95401 83.2258L6.12634 80.3966ZM12.3595 74.3722C13.3747 73.4234 14.4422 72.4415 15.553 71.4399L18.2317 74.4105C17.1398 75.3951 16.0899 76.3608 15.0906 77.2946L12.3595 74.3722ZM18.8051 68.5633C19.8829 67.6289 20.9899 66.6882 22.1194 65.7514L24.673 68.8303C23.5676 69.7471 22.4829 70.6688 21.4254 71.5856L18.8051 68.5633ZM25.5036 63.014C26.6447 62.115 27.8018 61.2287 28.9684 60.3645L31.3493 63.5787C30.2173 64.4173 29.0917 65.2795 27.9789 66.1561L25.5036 63.014ZM32.528 57.8224C33.7501 56.9836 34.9771 56.1778 36.2021 55.4161L38.3143 58.813C37.1459 59.5395 35.9694 60.3118 34.7916 61.1203L32.528 57.8224ZM40.0179 53.1902C40.6775 52.8323 41.3353 52.4903 41.9901 52.1661L43.7649 55.7508C43.1578 56.0514 42.5442 56.3703 41.9252 56.7061L40.0179 53.1902ZM41.9901 52.1661C42.5896 51.8693 43.1995 51.5707 43.8192 51.2707L45.5621 54.871C44.9529 55.166 44.3536 55.4593 43.7649 55.7508L41.9901 52.1661ZM47.5428 49.5066C48.763 48.9406 50.0135 48.372 51.2907 47.803L52.9185 51.4568C51.6596 52.0177 50.4275 52.5779 49.2259 53.1353L47.5428 49.5066ZM55.061 46.156C56.3056 45.6229 57.5707 45.0914 58.8531 44.5632L60.3763 48.2619C59.1112 48.7829 57.8634 49.3072 56.6359 49.8329L55.061 46.156ZM62.667 43.0236C63.933 42.5228 65.2125 42.0269 66.5027 41.5374L67.9214 45.2774C66.6491 45.76 65.3872 46.2492 64.1384 46.7432L62.667 43.0236ZM70.3602 40.1058C71.6464 39.6391 72.9404 39.1803 74.2397 38.7309L75.5471 42.5113C74.2673 42.9538 72.9923 43.4059 71.7246 43.8659L70.3602 40.1058ZM78.1415 37.416C79.4477 36.9875 80.7567 36.57 82.0659 36.1651L83.2477 39.9865C81.961 40.3844 80.6737 40.795 79.3884 41.2167L78.1415 37.416ZM86.0138 34.9835C87.3412 34.5997 88.6663 34.2306 89.9863 33.8778L91.0191 37.7421C89.7263 38.0877 88.4273 38.4495 87.1247 38.8261L86.0138 34.9835ZM93.9854 32.8563C95.337 32.5276 96.6807 32.2181 98.0133 31.9297L98.8592 35.8393C97.5616 36.12 96.2511 36.4219 94.9307 36.743L93.9854 32.8563ZM102.073 31.1118C103.455 30.855 104.821 30.6239 106.169 30.4208L106.765 34.3762C105.465 34.572 104.144 34.7954 102.804 35.0444L102.073 31.1118ZM110.303 29.8816C111.722 29.7269 113.116 29.6083 114.479 29.5288L114.712 33.522C113.421 33.5972 112.095 33.71 110.737 33.858L110.303 29.8816ZM118.694 29.4118C120.152 29.4196 121.569 29.4816 122.938 29.6031L122.584 33.5874C121.338 33.4768 120.032 33.4191 118.673 33.4118L118.694 29.4118ZM127.182 30.2107C128.677 30.5162 130.101 30.9167 131.435 31.4243L130.013 35.163C128.907 34.7422 127.695 34.3981 126.381 34.1297L127.182 30.2107ZM135.46 33.4815C136.768 34.3631 137.928 35.408 138.909 36.6312L135.787 39.1326C135.078 38.2481 134.224 37.4719 133.224 36.7982L135.46 33.4815ZM141.218 40.6993C141.738 42.0752 142.085 43.5681 142.257 45.1763L138.28 45.6016C138.14 44.3 137.865 43.1429 137.476 42.1141L141.218 40.6993ZM142.312 49.5767C142.26 50.2954 142.181 51.0332 142.073 51.79L138.113 51.2275C138.208 50.5572 138.277 49.9117 138.322 49.2905L142.312 49.5767ZM142.073 51.79C141.975 52.4802 141.863 53.1594 141.736 53.8277L137.806 53.0809C137.921 52.4745 138.024 51.8568 138.113 51.2275L142.073 51.79ZM140.774 57.8139C140.374 59.1675 139.912 60.4685 139.39 61.717L135.699 60.1759C136.164 59.0627 136.578 57.8981 136.938 56.6813L140.774 57.8139ZM137.58 65.4392C136.892 66.668 136.142 67.8341 135.336 68.9378L132.106 66.5791C132.817 65.6045 133.481 64.5732 134.091 63.4844L137.58 65.4392ZM132.687 72.1369C131.731 73.1587 130.721 74.1111 129.666 74.9946L127.098 71.9278C128.031 71.1463 128.923 70.3049 129.767 69.4031L132.687 72.1369ZM126.332 77.465C125.172 78.2237 123.972 78.9116 122.742 79.5293L120.947 75.9545C122.045 75.4032 123.113 74.7908 124.144 74.117L126.332 77.465ZM118.952 81.1781C117.662 81.6585 116.347 82.0692 115.017 82.4114L114.021 78.5375C115.219 78.2294 116.4 77.8601 117.557 77.4293L118.952 81.1781ZM110.983 83.2334C109.625 83.4396 108.259 83.578 106.891 83.6492L106.683 79.6546C107.921 79.5902 109.156 79.465 110.382 79.2788L110.983 83.2334ZM102.781 83.6618C101.408 83.5988 100.04 83.4684 98.686 83.2711L99.2626 79.3129C100.486 79.4911 101.722 79.609 102.964 79.666L102.781 83.6618ZM94.6461 82.4731C93.3081 82.1372 91.9911 81.7329 90.7034 81.2606L92.0809 77.5053C93.2337 77.9281 94.4159 78.2912 95.6201 78.5935L94.6461 82.4731ZM86.9024 79.6228C85.6612 79.003 84.4585 78.3128 83.3033 77.5524L85.5025 74.2112C86.5213 74.8818 87.5861 75.4932 88.6896 76.0443L86.9024 79.6228ZM79.9733 75.0473C79.4447 74.5939 78.9306 74.1228 78.4321 73.6342L81.2322 70.7777C81.6666 71.2035 82.1154 71.6148 82.5777 72.0114L79.9733 75.0473ZM78.4321 73.6342C77.8832 73.0961 77.378 72.5489 76.9166 71.9924L79.9959 69.4394C80.3641 69.8834 80.7752 70.3298 81.2322 70.7777L78.4321 73.6342ZM74.4901 68.1453C73.8315 66.6674 73.4521 65.1544 73.3361 63.6196L77.3248 63.3184C77.4055 64.3875 77.6692 65.4522 78.1437 66.517L74.4901 68.1453ZM73.7511 59.0104C74.1023 57.6001 74.6471 56.2086 75.3502 54.8415L78.9074 56.6707C78.3237 57.8058 77.8986 58.9085 77.6325 59.9771L73.7511 59.0104ZM77.6429 51.1633C78.4431 50.0665 79.3383 48.9789 80.3148 47.9022L83.2778 50.5893C82.3836 51.5753 81.5803 52.5533 80.8742 53.521L77.6429 51.1633ZM83.2498 44.9179C84.2223 43.9992 85.2508 43.0863 86.3278 42.1806L88.9022 45.2421C87.878 46.1033 86.9077 46.9649 85.9968 47.8255L83.2498 44.9179ZM89.5329 39.6119C90.5974 38.7963 91.6983 37.9864 92.8304 37.1833L95.1449 40.4457C94.0495 41.2228 92.9881 42.0036 91.9656 42.7871L89.5329 39.6119ZM96.1974 34.8728C97.3134 34.131 98.4531 33.3954 99.6124 32.6668L101.741 36.0535C100.608 36.7652 99.4974 37.4823 98.4118 38.204L96.1974 34.8728ZM103.073 30.5457C104.226 29.8559 105.394 29.1731 106.573 28.498L108.561 31.9693C107.403 32.6325 106.257 33.3024 105.127 33.9784L103.073 30.5457ZM110.106 26.5153C111.287 25.8653 112.475 25.2235 113.667 24.5904L115.543 28.1232C114.368 28.7474 113.197 29.3797 112.035 30.0195L110.106 26.5153ZM117.253 22.7178C118.456 22.0995 119.659 21.4909 120.86 20.8924L122.644 24.4721C121.458 25.0637 120.269 25.6651 119.081 26.2755L117.253 22.7178ZM124.485 19.1104C125.707 18.5179 126.921 17.937 128.125 17.3683L129.834 20.9851C128.641 21.5483 127.439 22.1234 126.23 22.7096L124.485 19.1104ZM131.778 15.6638C133.022 15.0906 134.249 14.5319 135.454 13.9886L137.097 17.6355C135.902 18.1743 134.685 18.7282 133.453 19.2964L131.778 15.6638ZM139.144 12.3437C139.762 12.071 140.373 11.8031 140.976 11.5399L142.577 15.2056C141.978 15.4669 141.372 15.7329 140.759 16.0035L139.144 12.3437ZM140.976 11.5399C141.59 11.2716 142.204 11.0099 142.815 10.7548L144.355 14.4466C143.763 14.6933 143.17 14.9463 142.577 15.2056L140.976 11.5399ZM146.519 9.28094C147.78 8.80295 149.032 8.35174 150.274 7.92582L151.572 11.7095C150.369 12.1219 149.157 12.5586 147.938 13.0211L146.519 9.28094ZM154.06 6.69391C155.352 6.29548 156.631 5.92379 157.893 5.57708L158.952 9.43412C157.729 9.77021 156.49 10.1304 155.238 10.5164L154.06 6.69391ZM161.747 4.58065C163.066 4.26073 164.362 3.96768 165.634 3.6993L166.46 7.61303C165.227 7.87342 163.969 8.1577 162.689 8.46796L161.747 4.58065ZM169.546 2.93372C170.892 2.69077 172.203 2.47533 173.475 2.28441L174.069 6.24006C172.835 6.42533 171.563 6.63441 170.256 6.87017L169.546 2.93372ZM177.422 1.75115C178.807 1.58492 180.131 1.448 181.387 1.33562L181.744 5.3197C180.526 5.42862 179.242 5.56139 177.899 5.72265L177.422 1.75115ZM185.359 1.04264C186.833 0.957437 188.17 0.906987 189.353 0.879638L189.445 4.87857C188.306 4.9049 187.016 4.95356 185.589 5.03598L185.359 1.04264ZM193.363 0.868611C194.014 0.88176 194.518 0.90052 194.863 0.916246C195.036 0.924109 195.169 0.931214 195.26 0.936482C195.306 0.939116 195.342 0.941291 195.367 0.942872C195.379 0.943662 195.389 0.944304 195.396 0.944781C195.4 0.945019 195.403 0.945216 195.405 0.945369C195.406 0.945446 195.407 0.945512 195.408 0.945567C195.408 0.945594 195.409 0.945619 195.409 0.94564C195.409 0.945651 195.409 0.945662 195.409 0.945671C195.41 0.945676 195.41 0.945682 195.41 0.945685C195.41 0.945691 195.41 0.945697 195.272 2.94095C195.135 4.93621 195.135 4.93622 195.135 4.93622C195.135 4.93622 195.135 4.93623 195.135 4.93623C195.135 4.93624 195.135 4.93624 195.135 4.93625C195.135 4.93626 195.135 4.93627 195.135 4.93627C195.136 4.93628 195.136 4.93628 195.135 4.93627C195.135 4.93624 195.134 4.93617 195.132 4.93606C195.129 4.93583 195.123 4.93543 195.114 4.93488C195.097 4.93378 195.069 4.93207 195.031 4.92989C194.955 4.92551 194.838 4.91923 194.681 4.9121C194.368 4.89785 193.898 4.88023 193.283 4.86779L193.363 0.868611Z" fill="#F8425F"/>
</svg>