<svg width="130" height="308" viewBox="0 0 130 308" fill="none" xmlns="http://www.w3.org/2000/svg">
<g clip-path="url(#clip0_1181_57745)">
<path d="M-167.002 71.6308C-167.854 73.1082 -168.685 74.6 -169.493 76.1058C-168.026 75.146 -167.045 73.5043 -167.002 71.6308Z" fill="#10519C"/>
<path d="M-136.886 33.6595C-139.449 36.0646 -141.935 38.5507 -144.341 41.1136C-143.41 42.8325 -141.592 44 -139.5 44C-136.462 44 -134 41.5376 -134 38.5C-134 36.4084 -135.168 34.5895 -136.886 33.6595Z" fill="#10519C"/>
<path d="M-101.894 8.50722C-103.4 9.31509 -104.892 10.1457 -106.369 10.9985C-104.496 10.9547 -102.854 9.97424 -101.894 8.50722Z" fill="#10519C"/>
<path d="M58.3692 10.9985C56.8918 10.1457 55.4 9.31509 53.8942 8.50722C54.854 9.97424 56.4957 10.9547 58.3692 10.9985Z" fill="#10519C"/>
<path d="M96.3405 41.1136C93.9354 38.5507 91.4493 36.0646 88.8864 33.6595C87.1675 34.5895 86 36.4084 86 38.5C86 41.5376 88.4624 44 91.5 44C93.5916 44 95.4105 42.8325 96.3405 41.1136Z" fill="#10519C"/>
<path d="M121.493 76.1058C120.685 74.6 119.854 73.1082 119.002 71.6308C119.045 73.5043 120.026 75.146 121.493 76.1058Z" fill="#10519C"/>
<path d="M-169.493 231.894C-168.685 233.4 -167.854 234.892 -167.002 236.369C-167.045 234.496 -168.026 232.854 -169.493 231.894Z" fill="#10519C"/>
<path d="M-144.341 266.886C-143.41 265.168 -141.592 264 -139.5 264C-136.462 264 -134 266.462 -134 269.5C-134 271.592 -135.168 273.41 -136.886 274.341C-139.449 271.935 -141.935 269.449 -144.341 266.886Z" fill="#10519C"/>
<path d="M-106.369 297.002C-104.496 297.045 -102.854 298.026 -101.894 299.493C-103.4 298.685 -104.892 297.854 -106.369 297.002Z" fill="#10519C"/>
<path d="M53.8942 299.493C54.854 298.026 56.4957 297.045 58.3692 297.002C56.8918 297.854 55.4 298.685 53.8942 299.493Z" fill="#10519C"/>
<path d="M88.8864 274.341C87.1675 273.41 86 271.592 86 269.5C86 266.462 88.4624 264 91.5 264C93.5916 264 95.4105 265.168 96.3405 266.886C93.9354 269.449 91.4493 271.935 88.8864 274.341Z" fill="#10519C"/>
<path d="M119.002 236.369C119.045 234.496 120.026 232.854 121.493 231.894C120.685 233.4 119.854 234.892 119.002 236.369Z" fill="#10519C"/>
<path d="M20 5.5C20 8.53757 22.4624 11 25.5 11C28.5376 11 31 8.53757 31 5.5C31 2.46243 28.5376 0 25.5 0C22.4624 0 20 2.46243 20 5.5Z" fill="#10519C"/>
<path d="M-13 5.5C-13 8.53757 -10.5376 11 -7.5 11C-4.46243 11 -2 8.53757 -2 5.5C-2 2.46243 -4.46243 0 -7.5 0C-10.5376 0 -13 2.46243 -13 5.5Z" fill="#10519C"/>
<path d="M-46 5.5C-46 8.53757 -43.5376 11 -40.5 11C-37.4624 11 -35 8.53757 -35 5.5C-35 2.46243 -37.4624 0 -40.5 0C-43.5376 0 -46 2.46243 -46 5.5Z" fill="#10519C"/>
<path d="M-79 5.5C-79 8.53757 -76.5376 11 -73.5 11C-70.4624 11 -68 8.53757 -68 5.5C-68 2.46243 -70.4624 0 -73.5 0C-76.5376 0 -79 2.46243 -79 5.5Z" fill="#10519C"/>
<path d="M53 38.5C53 41.5376 55.4624 44 58.5 44C61.5376 44 64 41.5376 64 38.5C64 35.4624 61.5376 33 58.5 33C55.4624 33 53 35.4624 53 38.5Z" fill="#10519C"/>
<path d="M20 38.5C20 41.5376 22.4624 44 25.5 44C28.5376 44 31 41.5376 31 38.5C31 35.4624 28.5376 33 25.5 33C22.4624 33 20 35.4624 20 38.5Z" fill="#10519C"/>
<path d="M-13 38.5C-13 41.5376 -10.5376 44 -7.5 44C-4.46243 44 -2 41.5376 -2 38.5C-2 35.4624 -4.46243 33 -7.5 33C-10.5376 33 -13 35.4624 -13 38.5Z" fill="#10519C"/>
<path d="M-46 38.5C-46 41.5376 -43.5376 44 -40.5 44C-37.4624 44 -35 41.5376 -35 38.5C-35 35.4624 -37.4624 33 -40.5 33C-43.5376 33 -46 35.4624 -46 38.5Z" fill="#10519C"/>
<path d="M-79 38.5C-79 41.5376 -76.5376 44 -73.5 44C-70.4624 44 -68 41.5376 -68 38.5C-68 35.4624 -70.4624 33 -73.5 33C-76.5376 33 -79 35.4624 -79 38.5Z" fill="#10519C"/>
<path d="M-112 38.5C-112 41.5376 -109.538 44 -106.5 44C-103.462 44 -101 41.5376 -101 38.5C-101 35.4624 -103.462 33 -106.5 33C-109.538 33 -112 35.4624 -112 38.5Z" fill="#10519C"/>
<path d="M86 71.5C86 74.5376 88.4624 77 91.5 77C94.5376 77 97 74.5376 97 71.5C97 68.4624 94.5376 66 91.5 66C88.4624 66 86 68.4624 86 71.5Z" fill="#10519C"/>
<path d="M53 71.5C53 74.5376 55.4624 77 58.5 77C61.5376 77 64 74.5376 64 71.5C64 68.4624 61.5376 66 58.5 66C55.4624 66 53 68.4624 53 71.5Z" fill="#10519C"/>
<path d="M20 71.5C20 74.5376 22.4624 77 25.5 77C28.5376 77 31 74.5376 31 71.5C31 68.4624 28.5376 66 25.5 66C22.4624 66 20 68.4624 20 71.5Z" fill="#10519C"/>
<path d="M-13 71.5C-13 74.5376 -10.5376 77 -7.5 77C-4.46243 77 -2 74.5376 -2 71.5C-2 68.4624 -4.46243 66 -7.5 66C-10.5376 66 -13 68.4624 -13 71.5Z" fill="#10519C"/>
<path d="M-46 71.5C-46 74.5376 -43.5376 77 -40.5 77C-37.4624 77 -35 74.5376 -35 71.5C-35 68.4624 -37.4624 66 -40.5 66C-43.5376 66 -46 68.4624 -46 71.5Z" fill="#10519C"/>
<path d="M-79 71.5C-79 74.5376 -76.5376 77 -73.5 77C-70.4624 77 -68 74.5376 -68 71.5C-68 68.4624 -70.4624 66 -73.5 66C-76.5376 66 -79 68.4624 -79 71.5Z" fill="#10519C"/>
<path d="M-112 71.5C-112 74.5376 -109.538 77 -106.5 77C-103.462 77 -101 74.5376 -101 71.5C-101 68.4624 -103.462 66 -106.5 66C-109.538 66 -112 68.4624 -112 71.5Z" fill="#10519C"/>
<path d="M-145 71.5C-145 74.5376 -142.538 77 -139.5 77C-136.462 77 -134 74.5376 -134 71.5C-134 68.4624 -136.462 66 -139.5 66C-142.538 66 -145 68.4624 -145 71.5Z" fill="#10519C"/>
<path d="M119 104.5C119 107.538 121.462 110 124.5 110C127.538 110 130 107.538 130 104.5C130 101.462 127.538 99 124.5 99C121.462 99 119 101.462 119 104.5Z" fill="#10519C"/>
<path d="M86 104.5C86 107.538 88.4624 110 91.5 110C94.5376 110 97 107.538 97 104.5C97 101.462 94.5376 99 91.5 99C88.4624 99 86 101.462 86 104.5Z" fill="#10519C"/>
<path d="M53 104.5C53 107.538 55.4624 110 58.5 110C61.5376 110 64 107.538 64 104.5C64 101.462 61.5376 99 58.5 99C55.4624 99 53 101.462 53 104.5Z" fill="#10519C"/>
<path d="M20 104.5C20 107.538 22.4624 110 25.5 110C28.5376 110 31 107.538 31 104.5C31 101.462 28.5376 99 25.5 99C22.4624 99 20 101.462 20 104.5Z" fill="#10519C"/>
<path d="M-13 104.5C-13 107.538 -10.5376 110 -7.5 110C-4.46243 110 -2 107.538 -2 104.5C-2 101.462 -4.46243 99 -7.5 99C-10.5376 99 -13 101.462 -13 104.5Z" fill="#10519C"/>
<path d="M-46 104.5C-46 107.538 -43.5376 110 -40.5 110C-37.4624 110 -35 107.538 -35 104.5C-35 101.462 -37.4624 99 -40.5 99C-43.5376 99 -46 101.462 -46 104.5Z" fill="#10519C"/>
<path d="M-79 104.5C-79 107.538 -76.5376 110 -73.5 110C-70.4624 110 -68 107.538 -68 104.5C-68 101.462 -70.4624 99 -73.5 99C-76.5376 99 -79 101.462 -79 104.5Z" fill="#10519C"/>
<path d="M-112 104.5C-112 107.538 -109.538 110 -106.5 110C-103.462 110 -101 107.538 -101 104.5C-101 101.462 -103.462 99 -106.5 99C-109.538 99 -112 101.462 -112 104.5Z" fill="#10519C"/>
<path d="M-145 104.5C-145 107.538 -142.538 110 -139.5 110C-136.462 110 -134 107.538 -134 104.5C-134 101.462 -136.462 99 -139.5 99C-142.538 99 -145 101.462 -145 104.5Z" fill="#10519C"/>
<path d="M-178 104.5C-178 107.538 -175.538 110 -172.5 110C-169.462 110 -167 107.538 -167 104.5C-167 101.462 -169.462 99 -172.5 99C-175.538 99 -178 101.462 -178 104.5Z" fill="#10519C"/>
<path d="M119 137.5C119 140.538 121.462 143 124.5 143C127.538 143 130 140.538 130 137.5C130 134.462 127.538 132 124.5 132C121.462 132 119 134.462 119 137.5Z" fill="#10519C"/>
<path d="M86 137.5C86 140.538 88.4624 143 91.5 143C94.5376 143 97 140.538 97 137.5C97 134.462 94.5376 132 91.5 132C88.4624 132 86 134.462 86 137.5Z" fill="#10519C"/>
<path d="M53 137.5C53 140.538 55.4624 143 58.5 143C61.5376 143 64 140.538 64 137.5C64 134.462 61.5376 132 58.5 132C55.4624 132 53 134.462 53 137.5Z" fill="#10519C"/>
<path d="M20 137.5C20 140.538 22.4624 143 25.5 143C28.5376 143 31 140.538 31 137.5C31 134.462 28.5376 132 25.5 132C22.4624 132 20 134.462 20 137.5Z" fill="#10519C"/>
<path d="M-13 137.5C-13 140.538 -10.5376 143 -7.5 143C-4.46243 143 -2 140.538 -2 137.5C-2 134.462 -4.46243 132 -7.5 132C-10.5376 132 -13 134.462 -13 137.5Z" fill="#10519C"/>
<path d="M-46 137.5C-46 140.538 -43.5376 143 -40.5 143C-37.4624 143 -35 140.538 -35 137.5C-35 134.462 -37.4624 132 -40.5 132C-43.5376 132 -46 134.462 -46 137.5Z" fill="#10519C"/>
<path d="M-79 137.5C-79 140.538 -76.5376 143 -73.5 143C-70.4624 143 -68 140.538 -68 137.5C-68 134.462 -70.4624 132 -73.5 132C-76.5376 132 -79 134.462 -79 137.5Z" fill="#10519C"/>
<path d="M-112 137.5C-112 140.538 -109.538 143 -106.5 143C-103.462 143 -101 140.538 -101 137.5C-101 134.462 -103.462 132 -106.5 132C-109.538 132 -112 134.462 -112 137.5Z" fill="#10519C"/>
<path d="M-145 137.5C-145 140.538 -142.538 143 -139.5 143C-136.462 143 -134 140.538 -134 137.5C-134 134.462 -136.462 132 -139.5 132C-142.538 132 -145 134.462 -145 137.5Z" fill="#10519C"/>
<path d="M-178 137.5C-178 140.538 -175.538 143 -172.5 143C-169.462 143 -167 140.538 -167 137.5C-167 134.462 -169.462 132 -172.5 132C-175.538 132 -178 134.462 -178 137.5Z" fill="#10519C"/>
<path d="M119 170.5C119 173.538 121.462 176 124.5 176C127.538 176 130 173.538 130 170.5C130 167.462 127.538 165 124.5 165C121.462 165 119 167.462 119 170.5Z" fill="#10519C"/>
<path d="M86 170.5C86 173.538 88.4624 176 91.5 176C94.5376 176 97 173.538 97 170.5C97 167.462 94.5376 165 91.5 165C88.4624 165 86 167.462 86 170.5Z" fill="#10519C"/>
<path d="M53 170.5C53 173.538 55.4624 176 58.5 176C61.5376 176 64 173.538 64 170.5C64 167.462 61.5376 165 58.5 165C55.4624 165 53 167.462 53 170.5Z" fill="#10519C"/>
<path d="M20 170.5C20 173.538 22.4624 176 25.5 176C28.5376 176 31 173.538 31 170.5C31 167.462 28.5376 165 25.5 165C22.4624 165 20 167.462 20 170.5Z" fill="#10519C"/>
<path d="M-13 170.5C-13 173.538 -10.5376 176 -7.5 176C-4.46243 176 -2 173.538 -2 170.5C-2 167.462 -4.46243 165 -7.5 165C-10.5376 165 -13 167.462 -13 170.5Z" fill="#10519C"/>
<path d="M-46 170.5C-46 173.538 -43.5376 176 -40.5 176C-37.4624 176 -35 173.538 -35 170.5C-35 167.462 -37.4624 165 -40.5 165C-43.5376 165 -46 167.462 -46 170.5Z" fill="#10519C"/>
<path d="M-79 170.5C-79 173.538 -76.5376 176 -73.5 176C-70.4624 176 -68 173.538 -68 170.5C-68 167.462 -70.4624 165 -73.5 165C-76.5376 165 -79 167.462 -79 170.5Z" fill="#10519C"/>
<path d="M-112 170.5C-112 173.538 -109.538 176 -106.5 176C-103.462 176 -101 173.538 -101 170.5C-101 167.462 -103.462 165 -106.5 165C-109.538 165 -112 167.462 -112 170.5Z" fill="#10519C"/>
<path d="M-145 170.5C-145 173.538 -142.538 176 -139.5 176C-136.462 176 -134 173.538 -134 170.5C-134 167.462 -136.462 165 -139.5 165C-142.538 165 -145 167.462 -145 170.5Z" fill="#10519C"/>
<path d="M-178 170.5C-178 173.538 -175.538 176 -172.5 176C-169.462 176 -167 173.538 -167 170.5C-167 167.462 -169.462 165 -172.5 165C-175.538 165 -178 167.462 -178 170.5Z" fill="#10519C"/>
<path d="M119 203.5C119 206.538 121.462 209 124.5 209C127.538 209 130 206.538 130 203.5C130 200.462 127.538 198 124.5 198C121.462 198 119 200.462 119 203.5Z" fill="#10519C"/>
<path d="M86 203.5C86 206.538 88.4624 209 91.5 209C94.5376 209 97 206.538 97 203.5C97 200.462 94.5376 198 91.5 198C88.4624 198 86 200.462 86 203.5Z" fill="#10519C"/>
<path d="M53 203.5C53 206.538 55.4624 209 58.5 209C61.5376 209 64 206.538 64 203.5C64 200.462 61.5376 198 58.5 198C55.4624 198 53 200.462 53 203.5Z" fill="#10519C"/>
<path d="M20 203.5C20 206.538 22.4624 209 25.5 209C28.5376 209 31 206.538 31 203.5C31 200.462 28.5376 198 25.5 198C22.4624 198 20 200.462 20 203.5Z" fill="#10519C"/>
<path d="M-13 203.5C-13 206.538 -10.5376 209 -7.5 209C-4.46243 209 -2 206.538 -2 203.5C-2 200.462 -4.46243 198 -7.5 198C-10.5376 198 -13 200.462 -13 203.5Z" fill="#10519C"/>
<path d="M-46 203.5C-46 206.538 -43.5376 209 -40.5 209C-37.4624 209 -35 206.538 -35 203.5C-35 200.462 -37.4624 198 -40.5 198C-43.5376 198 -46 200.462 -46 203.5Z" fill="#10519C"/>
<path d="M-79 203.5C-79 206.538 -76.5376 209 -73.5 209C-70.4624 209 -68 206.538 -68 203.5C-68 200.462 -70.4624 198 -73.5 198C-76.5376 198 -79 200.462 -79 203.5Z" fill="#10519C"/>
<path d="M-112 203.5C-112 206.538 -109.538 209 -106.5 209C-103.462 209 -101 206.538 -101 203.5C-101 200.462 -103.462 198 -106.5 198C-109.538 198 -112 200.462 -112 203.5Z" fill="#10519C"/>
<path d="M-145 203.5C-145 206.538 -142.538 209 -139.5 209C-136.462 209 -134 206.538 -134 203.5C-134 200.462 -136.462 198 -139.5 198C-142.538 198 -145 200.462 -145 203.5Z" fill="#10519C"/>
<path d="M-178 203.5C-178 206.538 -175.538 209 -172.5 209C-169.462 209 -167 206.538 -167 203.5C-167 200.462 -169.462 198 -172.5 198C-175.538 198 -178 200.462 -178 203.5Z" fill="#10519C"/>
<path d="M86 236.5C86 239.538 88.4624 242 91.5 242C94.5376 242 97 239.538 97 236.5C97 233.462 94.5376 231 91.5 231C88.4624 231 86 233.462 86 236.5Z" fill="#10519C"/>
<path d="M53 236.5C53 239.538 55.4624 242 58.5 242C61.5376 242 64 239.538 64 236.5C64 233.462 61.5376 231 58.5 231C55.4624 231 53 233.462 53 236.5Z" fill="#10519C"/>
<path d="M20 236.5C20 239.538 22.4624 242 25.5 242C28.5376 242 31 239.538 31 236.5C31 233.462 28.5376 231 25.5 231C22.4624 231 20 233.462 20 236.5Z" fill="#10519C"/>
<path d="M-13 236.5C-13 239.538 -10.5376 242 -7.5 242C-4.46243 242 -2 239.538 -2 236.5C-2 233.462 -4.46243 231 -7.5 231C-10.5376 231 -13 233.462 -13 236.5Z" fill="#10519C"/>
<path d="M-46 236.5C-46 239.538 -43.5376 242 -40.5 242C-37.4624 242 -35 239.538 -35 236.5C-35 233.462 -37.4624 231 -40.5 231C-43.5376 231 -46 233.462 -46 236.5Z" fill="#10519C"/>
<path d="M-79 236.5C-79 239.538 -76.5376 242 -73.5 242C-70.4624 242 -68 239.538 -68 236.5C-68 233.462 -70.4624 231 -73.5 231C-76.5376 231 -79 233.462 -79 236.5Z" fill="#10519C"/>
<path d="M-112 236.5C-112 239.538 -109.538 242 -106.5 242C-103.462 242 -101 239.538 -101 236.5C-101 233.462 -103.462 231 -106.5 231C-109.538 231 -112 233.462 -112 236.5Z" fill="#10519C"/>
<path d="M-145 236.5C-145 239.538 -142.538 242 -139.5 242C-136.462 242 -134 239.538 -134 236.5C-134 233.462 -136.462 231 -139.5 231C-142.538 231 -145 233.462 -145 236.5Z" fill="#10519C"/>
<path d="M53 269.5C53 272.538 55.4624 275 58.5 275C61.5376 275 64 272.538 64 269.5C64 266.462 61.5376 264 58.5 264C55.4624 264 53 266.462 53 269.5Z" fill="#10519C"/>
<path d="M20 269.5C20 272.538 22.4624 275 25.5 275C28.5376 275 31 272.538 31 269.5C31 266.462 28.5376 264 25.5 264C22.4624 264 20 266.462 20 269.5Z" fill="#10519C"/>
<path d="M-13 269.5C-13 272.538 -10.5376 275 -7.5 275C-4.46243 275 -2 272.538 -2 269.5C-2 266.462 -4.46243 264 -7.5 264C-10.5376 264 -13 266.462 -13 269.5Z" fill="#10519C"/>
<path d="M-46 269.5C-46 272.538 -43.5376 275 -40.5 275C-37.4624 275 -35 272.538 -35 269.5C-35 266.462 -37.4624 264 -40.5 264C-43.5376 264 -46 266.462 -46 269.5Z" fill="#10519C"/>
<path d="M-79 269.5C-79 272.538 -76.5376 275 -73.5 275C-70.4624 275 -68 272.538 -68 269.5C-68 266.462 -70.4624 264 -73.5 264C-76.5376 264 -79 266.462 -79 269.5Z" fill="#10519C"/>
<path d="M-112 269.5C-112 272.538 -109.538 275 -106.5 275C-103.462 275 -101 272.538 -101 269.5C-101 266.462 -103.462 264 -106.5 264C-109.538 264 -112 266.462 -112 269.5Z" fill="#10519C"/>
<path d="M20 302.5C20 305.538 22.4624 308 25.5 308C28.5376 308 31 305.538 31 302.5C31 299.462 28.5376 297 25.5 297C22.4624 297 20 299.462 20 302.5Z" fill="#10519C"/>
<path d="M-13 302.5C-13 305.538 -10.5376 308 -7.5 308C-4.46243 308 -2 305.538 -2 302.5C-2 299.462 -4.46243 297 -7.5 297C-10.5376 297 -13 299.462 -13 302.5Z" fill="#10519C"/>
<path d="M-46 302.5C-46 305.538 -43.5376 308 -40.5 308C-37.4624 308 -35 305.538 -35 302.5C-35 299.462 -37.4624 297 -40.5 297C-43.5376 297 -46 299.462 -46 302.5Z" fill="#10519C"/>
<path d="M-79 302.5C-79 305.538 -76.5376 308 -73.5 308C-70.4624 308 -68 305.538 -68 302.5C-68 299.462 -70.4624 297 -73.5 297C-76.5376 297 -79 299.462 -79 302.5Z" fill="#10519C"/>
</g>
<defs>
<clipPath id="clip0_1181_57745">
<rect width="130" height="308" fill="white" transform="matrix(-1 0 0 1 130 0)"/>
</clipPath>
</defs>
</svg>