<svg width="1137" height="476" viewBox="0 0 1137 476" fill="none" xmlns="http://www.w3.org/2000/svg">
<g clip-path="url(#clip0_1273_40389)">
<rect width="1137" height="476" fill="#023666"/>
<path d="M1086.49 252.922L1287.32 390.704C1288.83 391.747 1289.87 393.343 1290.21 395.143C1290.55 396.943 1290.17 398.8 1289.14 400.309L1152.16 599.965C1151.12 601.469 1149.53 602.498 1147.73 602.828C1145.93 603.158 1144.06 602.762 1142.55 601.726L1052.61 540.023L1079.85 500.309L1127.79 533.197C1128.67 533.8 1129.76 534.03 1130.81 533.838C1131.85 533.646 1132.78 533.047 1133.39 532.172L1213.1 415.985C1213.7 415.107 1213.92 414.027 1213.72 412.979C1213.52 411.932 1212.92 411.003 1212.04 410.396L1095.18 330.226C1094.3 329.623 1093.22 329.392 1092.17 329.584C1091.12 329.776 1090.19 330.376 1089.59 331.251L1046.37 394.243L1004.8 365.726C1003.86 365.092 1002.86 364.547 1001.81 364.096L1076.87 254.683C1077.91 253.179 1079.51 252.15 1081.31 251.82C1083.11 251.49 1084.97 251.886 1086.49 252.922V252.922ZM1027.26 522.625L948.678 468.71L997.374 397.731L1029.07 419.477L1009.88 447.442C1009.28 448.32 1009.06 449.401 1009.26 450.448C1009.46 451.496 1010.06 452.425 1010.94 453.031L1054.52 482.929L1027.26 522.625Z" fill="white"/>
<path d="M32.187 270.106L-32.1701 379.348C-32.6554 380.172 -32.796 381.153 -32.561 382.077C-32.326 383 -31.7347 383.789 -30.917 384.271L77.5097 448.147C78.3273 448.629 79.3044 448.764 80.2257 448.522C81.1471 448.28 81.9373 447.681 82.4227 446.857L146.78 337.616C147.265 336.792 147.406 335.81 147.171 334.887C146.936 333.964 146.344 333.175 145.527 332.693L37.0999 268.816C36.2822 268.335 35.3053 268.2 34.3839 268.442C33.4626 268.684 32.6723 269.282 32.187 270.106V270.106Z" fill="#F8425F"/>
<path d="M293.395 433H166.605C165.649 433 164.732 433.125 164.056 433.347C163.38 433.569 163 433.87 163 434.184V475.816C163 476.13 163.38 476.431 164.056 476.653C164.732 476.875 165.649 477 166.605 477H293.395C294.351 477 295.268 476.875 295.944 476.653C296.62 476.431 297 476.13 297 475.816V434.184C297 433.87 296.62 433.569 295.944 433.347C295.268 433.125 294.351 433 293.395 433V433Z" fill="#F8425F"/>
<path d="M1081.22 -1.89017C1081.22 6.92281 1079.48 15.6495 1076.11 23.7916C1072.74 31.9338 1067.8 39.3319 1061.56 45.5636C1055.33 51.7954 1047.93 56.7386 1039.79 60.1112C1031.65 63.4838 1022.92 65.2197 1014.11 65.2197C1005.3 65.2196 996.57 63.4838 988.428 60.1112C980.286 56.7386 972.888 51.7954 966.656 45.5636C960.424 39.3319 955.481 31.9338 952.108 23.7916C948.736 15.6495 947 6.92281 947 -1.89018L1014.11 -1.89017H1081.22Z" fill="#71B9F0"/>
</g>
<defs>
<clipPath id="clip0_1273_40389">
<rect width="1137" height="476" fill="white"/>
</clipPath>
</defs>
</svg>
