<svg width="64" height="64" viewBox="0 0 64 64" fill="none" xmlns="http://www.w3.org/2000/svg">
<circle cx="32" cy="32" r="32" fill="#F0F9FF"/>
<path d="M32 30.6534C33.7526 30.6534 35.1733 29.2505 35.1733 27.5201C35.1733 25.7896 33.7526 24.3867 32 24.3867C30.2474 24.3867 28.8267 25.7896 28.8267 27.5201C28.8267 29.2505 30.2474 30.6534 32 30.6534Z" fill="#10519C"/>
<path d="M27.1867 27.8333H27.5067V27.5466C27.5086 26.713 27.7438 25.8966 28.1856 25.1897C28.6274 24.4828 29.2582 23.9137 30.0067 23.5466C29.7851 23.0363 29.4294 22.5956 28.9775 22.2712C28.5255 21.9468 27.9942 21.7509 27.4398 21.7042C26.8854 21.6576 26.3288 21.7619 25.829 22.0062C25.3292 22.2505 24.9048 22.6256 24.6011 23.0917C24.2974 23.5578 24.1255 24.0974 24.1038 24.6533C24.0822 25.2092 24.2114 25.7606 24.478 26.249C24.7445 26.7373 25.1383 27.1443 25.6176 27.4268C26.0969 27.7092 26.6437 27.8566 27.2 27.8533L27.1867 27.8333ZM36.5067 27.52V27.8066H36.8267C37.3756 27.8011 37.9128 27.6477 38.3819 27.3626C38.851 27.0775 39.2345 26.6712 39.4922 26.1865C39.7498 25.7018 39.872 25.1566 39.8459 24.6083C39.8198 24.06 39.6464 23.5288 39.3438 23.0708C39.0413 22.6127 38.6209 22.2447 38.1269 22.0054C37.6328 21.7662 37.0834 21.6645 36.5365 21.7112C35.9896 21.7578 35.4653 21.9511 35.0189 22.2706C34.5725 22.5901 34.2206 23.024 34 23.5266C34.7487 23.8922 35.3802 24.4599 35.8231 25.1656C36.2661 25.8713 36.5029 26.6868 36.5067 27.52ZM34.86 30.9666C36.1855 31.229 37.4671 31.6779 38.6667 32.3C38.8357 32.3928 38.9887 32.5121 39.12 32.6533H42.6667V30.3733C42.6673 30.2859 42.6441 30.1999 42.5994 30.1247C42.5548 30.0495 42.4904 29.9879 42.4133 29.9466C40.6854 29.0429 38.7633 28.5738 36.8133 28.58H36.3733C36.1423 29.5191 35.6109 30.3571 34.86 30.9666ZM24.3533 33.9466C24.3521 33.6109 24.4428 33.2812 24.6155 32.9933C24.7883 32.7054 25.0365 32.4702 25.3333 32.3133C26.5328 31.6912 27.8145 31.2423 29.14 30.98C28.3927 30.3757 27.8617 29.5452 27.6267 28.6133H27.1867C25.2367 28.6071 23.3146 29.0762 21.5867 29.98C21.5096 30.0213 21.4452 30.0828 21.4006 30.158C21.3559 30.2332 21.3327 30.3192 21.3333 30.4066V34.6666H24.3533V33.9466ZM34.3067 37.7933H38.28V38.7266H34.3067V37.7933Z" fill="#10519C"/>
<path d="M41.8733 34.1733H37.2933V33.5067C37.2933 33.3298 37.2231 33.1603 37.0981 33.0353C36.9731 32.9102 36.8035 32.84 36.6267 32.84C36.4499 32.84 36.2803 32.9102 36.1553 33.0353C36.0302 33.1603 35.96 33.3298 35.96 33.5067V34.1733H34.6667V32.2867C33.7896 32.1025 32.8962 32.0064 32 32C29.8959 31.9912 27.8218 32.4994 25.96 33.48C25.8771 33.523 25.8077 33.5881 25.7594 33.6681C25.7112 33.7481 25.686 33.8399 25.6867 33.9333V37.6733H30.4267V41.7333C30.4267 41.9101 30.4969 42.0797 30.6219 42.2047C30.747 42.3298 30.9165 42.4 31.0933 42.4H41.8733C42.0502 42.4 42.2197 42.3298 42.3447 42.2047C42.4698 42.0797 42.54 41.9101 42.54 41.7333V34.84C42.54 34.6632 42.4698 34.4936 42.3447 34.3686C42.2197 34.2436 42.0502 34.1733 41.8733 34.1733ZM41.2067 41.08H31.76V35.5067H35.96V36.1133C35.96 36.2901 36.0302 36.4597 36.1553 36.5847C36.2803 36.7098 36.4499 36.78 36.6267 36.78C36.8035 36.78 36.9731 36.7098 37.0981 36.5847C37.2231 36.4597 37.2933 36.2901 37.2933 36.1133V35.5067H41.2067V41.08Z" fill="#10519C"/>
</svg>
