<svg width="16" height="16" viewBox="0 0 16 16" fill="none" xmlns="http://www.w3.org/2000/svg">
<path d="M6.66665 12.653C6.51088 12.6533 6.35993 12.5991 6.23999 12.4998C6.10365 12.3869 6.01789 12.2245 6.00163 12.0483C5.98537 11.8722 6.03995 11.6968 6.15332 11.5609L9.13999 7.99139L6.25999 4.41527C6.14814 4.27769 6.09581 4.10125 6.11457 3.92501C6.13334 3.74877 6.22167 3.58728 6.35999 3.47628C6.49943 3.35372 6.68374 3.29483 6.8685 3.31379C7.05327 3.33275 7.22173 3.42785 7.33332 3.57618L10.5533 7.57185C10.7555 7.81758 10.7555 8.17186 10.5533 8.4176L7.21999 12.4133C7.08434 12.5767 6.87881 12.6658 6.66665 12.653Z" fill="#1C4D94"/>
</svg>
