<svg width="16" height="16" viewBox="0 0 16 16" fill="none" xmlns="http://www.w3.org/2000/svg">
<path d="M12.6667 7.32543H8.66666V3.32976C8.66666 2.96197 8.36818 2.66382 7.99999 2.66382C7.6318 2.66382 7.33332 2.96197 7.33332 3.32976V7.32543H3.33332C2.96513 7.32543 2.66666 7.62359 2.66666 7.99138C2.66666 8.35917 2.96513 8.65732 3.33332 8.65732H7.33332V12.653C7.33332 13.0208 7.6318 13.3189 7.99999 13.3189C8.36818 13.3189 8.66666 13.0208 8.66666 12.653V8.65732H12.6667C13.0348 8.65732 13.3333 8.35917 13.3333 7.99138C13.3333 7.62359 13.0348 7.32543 12.6667 7.32543Z" fill="#1C4D94"/>
</svg>
