<svg width="48" height="48" viewBox="0 0 48 48" fill="none" xmlns="http://www.w3.org/2000/svg">
<rect width="48" height="48" rx="8" fill="#F0F9FF"/>
<path d="M23.9996 22.7173C25.6687 22.7173 27.0218 21.3812 27.0218 19.7332C27.0218 18.0851 25.6687 16.749 23.9996 16.749C22.3305 16.749 20.9774 18.0851 20.9774 19.7332C20.9774 21.3812 22.3305 22.7173 23.9996 22.7173Z" fill="#1C4D94"/>
<path d="M19.4155 20.0316H19.7203V19.7586C19.7221 18.9647 19.9461 18.1872 20.3669 17.5139C20.7876 16.8407 21.3884 16.2987 22.1012 15.9491C21.8902 15.4631 21.5515 15.0434 21.121 14.7344C20.6906 14.4255 20.1845 14.2388 19.6566 14.1944C19.1286 14.15 18.5985 14.2494 18.1225 14.482C17.6464 14.7147 17.2423 15.072 16.9531 15.5158C16.6638 15.9597 16.5001 16.4737 16.4795 17.0031C16.4588 17.5325 16.582 18.0577 16.8358 18.5227C17.0896 18.9878 17.4647 19.3754 17.9211 19.6445C18.3776 19.9135 18.8984 20.0539 19.4282 20.0507L19.4155 20.0316ZM28.2917 19.7332V20.0063H28.5964C29.1192 20.001 29.6309 19.8549 30.0776 19.5834C30.5244 19.3119 30.8897 18.9249 31.135 18.4633C31.3804 18.0016 31.4968 17.4824 31.4719 16.9602C31.4471 16.438 31.2819 15.9322 30.9938 15.4959C30.7057 15.0597 30.3053 14.7092 29.8348 14.4813C29.3642 14.2534 28.841 14.1566 28.3201 14.201C27.7992 14.2455 27.2999 14.4295 26.8748 14.7338C26.4497 15.0381 26.1144 15.4513 25.9044 15.9301C26.6174 16.2782 27.2189 16.8189 27.6407 17.491C28.0626 18.1631 28.2881 18.9397 28.2917 19.7332ZM26.7234 23.0158C27.9858 23.2656 29.2064 23.6932 30.3488 24.2856C30.5098 24.374 30.6555 24.4876 30.7806 24.6221H34.1584V22.4507C34.159 22.3674 34.1368 22.2855 34.0943 22.2139C34.0518 22.1423 33.9905 22.0837 33.9171 22.0443C32.2715 21.1836 30.4409 20.7368 28.5838 20.7428H28.1647C27.9447 21.6372 27.4386 22.4353 26.7234 23.0158ZM16.7171 25.8539C16.7159 25.5341 16.8023 25.2201 16.9668 24.9459C17.1313 24.6717 17.3677 24.4478 17.6504 24.2983C18.7928 23.7059 20.0134 23.2783 21.2758 23.0285C20.5641 22.4529 20.0584 21.662 19.8345 20.7745H19.4155C17.5584 20.7686 15.7278 21.2153 14.0822 22.0761C14.0087 22.1154 13.9475 22.1741 13.9049 22.2457C13.8624 22.3173 13.8403 22.3992 13.8409 22.4824V26.5396H16.7171V25.8539ZM26.1964 29.5174H29.9806V30.4063H26.1964V29.5174Z" fill="#1C4D94"/>
<path d="M33.4028 26.0697H29.0409V25.4348C29.0409 25.2664 28.974 25.1049 28.8549 24.9858C28.7359 24.8668 28.5744 24.7999 28.406 24.7999C28.2376 24.7999 28.0761 24.8668 27.957 24.9858C27.8379 25.1049 27.771 25.2664 27.771 25.4348V26.0697H26.5393V24.2729C25.704 24.0975 24.8532 24.006 23.9996 23.9999C21.9957 23.9915 20.0203 24.4755 18.2472 25.4094C18.1683 25.4504 18.1022 25.5124 18.0562 25.5886C18.0103 25.6648 17.9863 25.7522 17.9869 25.8411V29.403H22.5012V33.2697C22.5012 33.4381 22.5681 33.5996 22.6872 33.7187C22.8062 33.8377 22.9677 33.9046 23.1361 33.9046H33.4028C33.5712 33.9046 33.7327 33.8377 33.8517 33.7187C33.9708 33.5996 34.0377 33.4381 34.0377 33.2697V26.7046C34.0377 26.5362 33.9708 26.3747 33.8517 26.2557C33.7327 26.1366 33.5712 26.0697 33.4028 26.0697ZM32.7679 32.6475H23.771V27.3395H27.771V27.9173C27.771 28.0857 27.8379 28.2472 27.957 28.3663C28.0761 28.4854 28.2376 28.5522 28.406 28.5522C28.5744 28.5522 28.7359 28.4854 28.8549 28.3663C28.974 28.2472 29.0409 28.0857 29.0409 27.9173V27.3395H32.7679V32.6475Z" fill="#1C4D94"/>
</svg>
