<svg width="212" height="159" viewBox="0 0 212 159" fill="none" xmlns="http://www.w3.org/2000/svg">
<g id="illustration_empty_content">
<g id="illustration_shape02" opacity="0.2">
<path id="background" fill-rule="evenodd" clip-rule="evenodd" d="M0 87.7948C0 106.105 6.60088 122.79 17.4631 135.4C29.9244 149.871 47.9947 158.969 68.1371 159C76.9401 159.013 85.3574 157.283 93.0891 154.126C97.0867 152.492 101.561 152.68 105.433 154.615C109.975 156.882 115.06 158.153 120.431 158.153C122.649 158.153 124.822 157.934 126.923 157.52C132.921 156.34 138.38 153.549 142.863 149.596C145.68 147.111 149.288 145.861 152.976 145.866H153.038C165.223 145.866 176.542 142.009 185.939 135.4C194.34 129.499 201.2 121.401 205.771 111.893C209.757 103.607 212 94.2463 212 84.3397C212 50.362 185.6 22.8136 153.038 22.8136C149.719 22.8136 146.467 23.1061 143.294 23.652C134.893 9.46053 119.849 0 102.687 0C95.4412 0 88.572 1.68614 82.4232 4.70871C76.5757 7.57385 71.3767 11.6451 67.1238 16.6067C52.6826 16.8469 39.3295 21.7697 28.4005 29.9854C11.1969 42.9102 0 63.9897 0 87.7948Z" fill="url(#paint0_linear_954_22692)"/>
</g>
<g id="illustration_empty_content_2" clip-path="url(#clip0_954_22692)">
<g id="&#240;&#159;&#165;&#173;Illustrations/ illustration empty content">
<g id="Group" opacity="0.24">
<g id="background 2" opacity="0.24">
<g id="Group_2" opacity="0.24">
<path id="background_2" opacity="0.24" fill-rule="evenodd" clip-rule="evenodd" d="M0 87.7948C0 106.105 6.60088 122.79 17.4631 135.4C29.9244 149.871 47.9947 158.969 68.1371 159C76.9401 159.013 85.3574 157.283 93.0891 154.126C97.0867 152.492 101.561 152.68 105.433 154.615C109.975 156.882 115.06 158.153 120.431 158.153C122.649 158.153 124.822 157.934 126.923 157.52C132.921 156.34 138.38 153.549 142.863 149.596C145.68 147.111 149.288 145.861 152.976 145.866H153.038C165.223 145.866 176.542 142.009 185.939 135.4C194.34 129.499 201.2 121.401 205.771 111.893C209.757 103.607 212 94.2464 212 84.3397C212 50.362 185.6 22.8136 153.038 22.8136C149.719 22.8136 146.467 23.1061 143.294 23.652C134.893 9.46053 119.849 0 102.687 0C95.4412 0 88.572 1.68615 82.4232 4.70871C76.5757 7.57385 71.3767 11.6451 67.1238 16.6067C52.6826 16.8469 39.3295 21.7697 28.4005 29.9854C11.1969 42.9102 0 63.9897 0 87.7948Z" fill="url(#paint1_linear_954_22692)"/>
</g>
</g>
</g>
<g id="#gr">
<path id="Shape" opacity="0.545118" d="M120.102 33.4067C118.989 33.4067 117.876 32.9839 117.029 32.138C115.334 30.4462 115.334 27.6936 117.029 26.002C118.722 24.3108 121.48 24.3102 123.175 26.002C124.869 27.6939 124.869 30.4465 123.175 32.138C122.328 32.9839 121.215 33.4067 120.102 33.4067ZM120.102 27.7241C119.757 27.7241 119.411 27.8552 119.148 28.1179C118.622 28.6427 118.622 29.497 119.148 30.0222C119.674 30.547 120.529 30.5473 121.055 30.0222C121.581 29.4973 121.581 28.643 121.055 28.1179C120.792 27.8555 120.447 27.7241 120.102 27.7241Z" fill="#C4CDD5"/>
<path id="Shape_2" opacity="0.545118" d="M85.9367 134.708C84.8238 134.708 83.7107 134.285 82.8637 133.44C81.1691 131.748 81.1691 128.995 82.8637 127.304C84.5577 125.612 87.3157 125.612 89.0097 127.304C90.7044 128.996 90.7044 131.748 89.0097 133.44C88.1627 134.286 87.0496 134.708 85.9367 134.708ZM85.9367 129.026C85.5914 129.026 85.2459 129.157 84.9827 129.42C84.457 129.944 84.457 130.799 84.9827 131.324C85.509 131.849 86.3641 131.849 86.8904 131.324C87.4161 130.799 87.4161 129.945 86.8904 129.42C86.6276 129.157 86.282 129.026 85.9367 129.026Z" fill="#C4CDD5"/>
<path id="Path" d="M161.918 114.273C161.535 114.273 161.151 114.127 160.859 113.835L159.071 112.051L157.283 113.835C156.698 114.419 155.749 114.419 155.164 113.835C154.579 113.251 154.579 112.304 155.164 111.719L158.011 108.877C158.596 108.293 159.546 108.293 160.13 108.877L162.978 111.719C163.563 112.304 163.563 113.251 162.978 113.835C162.685 114.127 162.302 114.273 161.918 114.273Z" fill="#DFE3E8"/>
<path id="Path_2" d="M56.2182 108.573C55.8349 108.573 55.451 108.427 55.1587 108.135L53.3709 106.35L51.5831 108.135C50.9983 108.719 50.0488 108.719 49.464 108.135C48.8787 107.55 48.8787 106.603 49.464 106.019L52.3114 103.176C52.8961 102.592 53.8456 102.592 54.4304 103.176L57.2777 106.019C57.8631 106.603 57.8631 107.551 57.2777 108.135C56.9852 108.427 56.6016 108.573 56.2182 108.573Z" fill="#C4CDD5"/>
</g>
<g id="#gr_2" filter="url(#filter0_d_954_22692)">
<mask id="mask0_954_22692" style="mask-type:alpha" maskUnits="userSpaceOnUse" x="62" y="44" width="89" height="72">
<g id="mask 5">
<path id="Vector" d="M144.259 44.0635H68.8329C65.4607 44.0635 62.7269 46.7972 62.7269 50.1695V109.174C62.7269 112.546 65.4607 115.28 68.8329 115.28H144.259C147.631 115.28 150.365 112.546 150.365 109.174V50.1695C150.365 46.7972 147.631 44.0635 144.259 44.0635Z" fill="white"/>
</g>
</mask>
<g mask="url(#mask0_954_22692)">
<path id="mask" d="M144.259 44.0635H68.8329C65.4607 44.0635 62.7269 46.7972 62.7269 50.1695V109.174C62.7269 112.546 65.4607 115.28 68.8329 115.28H144.259C147.631 115.28 150.365 112.546 150.365 109.174V50.1695C150.365 46.7972 147.631 44.0635 144.259 44.0635Z" fill="#DFE3E8" stroke="#919EAB" stroke-opacity="0.48" stroke-width="1.72811"/>
<path id="Combined Shape" opacity="0.32" d="M147.798 44.0635C149.236 44.0635 150.365 44.9586 150.365 46.0982V64.4109H62.7269V46.0982C62.7269 44.9586 63.8565 44.0635 65.2945 44.0635H147.798ZM75.9746 51.6938C74.5477 51.6938 73.4269 52.8127 73.4269 54.2372C73.4269 55.6614 74.5477 56.7806 75.9746 56.7806C77.4014 56.7806 78.5222 55.6614 78.5222 54.2372C78.5222 52.8127 77.4014 51.6938 75.9746 51.6938ZM86.1651 51.6938C84.7382 51.6938 83.6174 52.8127 83.6174 54.2372C83.6174 55.6614 84.7382 56.7806 86.1651 56.7806C87.5919 56.7806 88.7127 55.6614 88.7127 54.2372C88.7127 52.8127 87.5919 51.6938 86.1651 51.6938ZM96.3555 51.6938C94.9287 51.6938 93.8079 52.8127 93.8079 54.2372C93.8079 55.6614 94.9287 56.7806 96.3555 56.7806C97.7824 56.7806 98.9032 55.6614 98.9032 54.2372C98.9032 52.8127 97.7824 51.6938 96.3555 51.6938Z" fill="#919EAB"/>
<path id="Path_3" d="M137.117 71.5325H111.641C110.233 71.5325 109.094 72.6701 109.094 74.0759V104.597C109.094 106.003 110.233 107.141 111.641 107.141H137.117C138.526 107.141 139.665 106.003 139.665 104.597V74.0759C139.665 72.6701 138.526 71.5325 137.117 71.5325Z" fill="#919EAB" fill-opacity="0.48" stroke="#919EAB" stroke-width="1.38249" stroke-dasharray="2.3 2.3"/>
<path id="Path_4" opacity="0.72" d="M75.9746 76.6193H86.165C87.5732 76.6193 88.7127 75.4817 88.7127 74.0759C88.7127 72.6701 87.5732 71.5325 86.165 71.5325H75.9746C74.5664 71.5325 73.4269 72.6701 73.4269 74.0759C73.4269 75.4817 74.5664 76.6193 75.9746 76.6193Z" stroke="#919EAB" stroke-width="1.38249" stroke-dasharray="2.3 2.3"/>
<path id="Path_5" opacity="0.72" d="M101.451 81.7063H75.9746C74.5664 81.7063 73.4269 82.8439 73.4269 84.2497C73.4269 85.6556 74.5664 86.7932 75.9746 86.7932H101.451C102.859 86.7932 103.998 85.6556 103.998 84.2497C103.998 82.8439 102.859 81.7063 101.451 81.7063Z" stroke="#919EAB" stroke-width="1.38249" stroke-dasharray="2.3 2.3"/>
<path id="Path_6" opacity="0.72" d="M101.451 91.8801H75.9746C74.5664 91.8801 73.4269 93.0177 73.4269 94.4236C73.4269 95.8294 74.5664 96.967 75.9746 96.967H101.451C102.859 96.967 103.998 95.8294 103.998 94.4236C103.998 93.0177 102.859 91.8801 101.451 91.8801Z" stroke="#919EAB" stroke-width="1.38249" stroke-dasharray="2.3 2.3"/>
<path id="Path_7" opacity="0.72" d="M101.451 102.054H75.9746C74.5664 102.054 73.4269 103.191 73.4269 104.597C73.4269 106.003 74.5664 107.141 75.9746 107.141H101.451C102.859 107.141 103.998 106.003 103.998 104.597C103.998 103.191 102.859 102.054 101.451 102.054Z" stroke="#919EAB" stroke-width="1.38249" stroke-dasharray="2.3 2.3"/>
</g>
</g>
</g>
</g>
</g>
<defs>
<filter id="filter0_d_954_22692" x="48.7269" y="30.0635" width="143.638" height="127.216" filterUnits="userSpaceOnUse" color-interpolation-filters="sRGB">
<feFlood flood-opacity="0" result="BackgroundImageFix"/>
<feColorMatrix in="SourceAlpha" type="matrix" values="0 0 0 0 0 0 0 0 0 0 0 0 0 0 0 0 0 0 127 0" result="hardAlpha"/>
<feOffset dx="14" dy="14"/>
<feGaussianBlur stdDeviation="14"/>
<feColorMatrix type="matrix" values="0 0 0 0 0.270588 0 0 0 0 0.309804 0 0 0 0 0.356863 0 0 0 0.24 0"/>
<feBlend mode="normal" in2="BackgroundImageFix" result="effect1_dropShadow_954_22692"/>
<feBlend mode="normal" in="SourceGraphic" in2="effect1_dropShadow_954_22692" result="shape"/>
</filter>
<linearGradient id="paint0_linear_954_22692" x1="145.224" y1="187.281" x2="223.215" y2="11.5045" gradientUnits="userSpaceOnUse">
<stop stop-color="#919EAB"/>
<stop offset="1" stop-color="#919EAB" stop-opacity="0.01"/>
</linearGradient>
<linearGradient id="paint1_linear_954_22692" x1="41.3313" y1="114.197" x2="131.103" y2="0.387441" gradientUnits="userSpaceOnUse">
<stop stop-color="#00AB55"/>
<stop offset="1" stop-color="#00AB55" stop-opacity="0"/>
</linearGradient>
<clipPath id="clip0_954_22692">
<rect width="212" height="159" fill="white"/>
</clipPath>
</defs>
</svg>
