<svg width="111" height="24" viewBox="0 0 111 24" fill="none" xmlns="http://www.w3.org/2000/svg">
<g clip-path="url(#clip0_1429_38161)">
<path d="M37.762 8.51333C37.7654 9.27772 37.5716 10.0302 37.1993 10.6988C36.8053 11.4103 36.2012 11.9843 35.4687 12.3432C34.5487 12.7911 33.5316 13.0057 32.5081 12.9679H30.0693V18.5461H27.1504V4.01734H32.5081C33.4994 3.9888 34.4839 4.18788 35.3854 4.59915C36.1262 4.94033 36.7445 5.49858 37.1577 6.19915C37.567 6.90143 37.776 7.70158 37.762 8.51333ZM32.3839 10.6159C33.0287 10.6676 33.6693 10.4743 34.1766 10.0748C34.3774 9.86899 34.533 9.62394 34.6337 9.35515C34.7343 9.08636 34.7778 8.7997 34.7613 8.51333C34.7613 7.09806 33.969 6.39043 32.3846 6.39043H30.0708V10.6159H32.3839Z" fill="white"/>
<path d="M39.0814 12.739C39.0605 11.6657 39.2962 10.6028 39.7691 9.63792C40.1984 8.78364 40.8558 8.0635 41.6692 7.55646C42.4803 7.06981 43.4117 6.81795 44.3587 6.82919C45.1414 6.81063 45.9161 6.98978 46.6104 7.34992C47.2243 7.66326 47.759 8.1108 48.1743 8.65901V7.01537H51.1138V18.547H48.1743V16.8605C47.7682 17.4284 47.2321 17.8921 46.6104 18.2132C45.9082 18.5719 45.1273 18.7509 44.3382 18.7339C43.3952 18.7423 42.4695 18.4824 41.6699 17.9848C40.8588 17.466 40.2025 16.7398 39.7698 15.8823C39.2966 14.9025 39.0608 13.8259 39.0814 12.739ZM48.1714 12.7805C48.1899 12.1513 48.0463 11.5278 47.7541 10.9696C47.4999 10.4816 47.109 10.0774 46.6286 9.80592C46.1716 9.53698 45.6511 9.39335 45.1201 9.38964C44.5892 9.38594 44.0667 9.52229 43.6059 9.78483C43.1318 10.0642 42.7429 10.4664 42.4804 10.9485C42.1899 11.4998 42.0462 12.116 42.0631 12.7383C42.0497 13.3737 42.1929 14.0027 42.4804 14.5703C42.746 15.056 43.1338 15.4648 43.6059 15.7565C44.0589 16.0285 44.578 16.1723 45.107 16.1725C45.6502 16.1806 46.185 16.039 46.6523 15.7634C47.1196 15.4878 47.5012 15.089 47.7548 14.611C48.0459 14.0454 48.1901 13.4164 48.1743 12.7812L48.1714 12.7805Z" fill="white"/>
<path d="M65.0141 7.01465L57.8636 24.0001H54.7576L57.2592 18.2546L52.6309 7.01465H55.9043L58.8853 15.0699L61.908 7.01465H65.0141Z" fill="white"/>
<path d="M69.5068 8.70113C69.9004 8.12974 70.4306 7.66465 71.0496 7.34767C71.7529 6.99217 72.533 6.81339 73.3218 6.82695C74.2623 6.81392 75.1874 7.06606 75.99 7.55422C76.8101 8.05326 77.4695 8.77555 77.8902 9.63567C78.3797 10.5957 78.6233 11.6612 78.5991 12.7375C78.6198 13.8267 78.3767 14.9048 77.8902 15.8808C77.4662 16.7442 76.808 17.4725 75.99 17.9833C75.2511 18.4272 74.4133 18.6823 73.5513 18.7259C72.6893 18.7694 71.8299 18.6 71.0496 18.2328C70.4398 17.9117 69.9121 17.456 69.5068 16.9004V18.5448H66.5879V3.14331H69.5068V8.70113ZM75.6151 12.7389C75.6319 12.1141 75.4805 11.4961 75.1766 10.9491C74.922 10.4611 74.5309 10.057 74.0504 9.78549C73.5945 9.52259 73.0762 9.38598 72.5493 9.38986C72.0202 9.38994 71.5011 9.53377 71.0481 9.80586C70.5739 10.0852 70.1846 10.4874 69.9219 10.9695C69.6476 11.5342 69.5051 12.1532 69.5051 12.7804C69.5051 13.4076 69.6476 14.0267 69.9219 14.5913C70.1878 15.0771 70.5759 15.4858 71.0481 15.7775C71.5054 16.0372 72.0228 16.1736 72.5493 16.1731C73.0789 16.1766 73.5989 16.0325 74.0504 15.7571C74.5291 15.4733 74.919 15.0626 75.1766 14.5709C75.4806 14.0087 75.6318 13.3772 75.6151 12.7389Z" fill="white"/>
<path d="M85.8453 18.7338C84.7988 18.7499 83.7656 18.4996 82.8438 18.0065C81.9601 17.5128 81.2313 16.785 80.7382 15.904C80.2236 14.9443 79.9652 13.8693 79.9877 12.7818C79.9652 11.6917 80.2313 10.6149 80.7594 9.65961C81.2651 8.77936 82.0091 8.05816 82.9066 7.57815C83.8374 7.08614 84.8753 6.82886 85.9293 6.82886C86.9833 6.82886 88.0212 7.08614 88.952 7.57815C89.8465 8.05515 90.5846 8.77756 91.0788 9.65961C91.6197 10.6107 91.8933 11.6892 91.871 12.7818C91.8931 13.877 91.612 14.9572 91.0583 15.904C90.5453 16.7913 89.7946 17.5192 88.8899 18.0065C87.9527 18.5 86.9055 18.7501 85.8453 18.7338ZM85.8453 16.1942C86.3626 16.197 86.8721 16.0681 87.3252 15.8196C87.8057 15.5482 88.1969 15.144 88.4514 14.656C88.7447 14.0757 88.8879 13.4318 88.868 12.7825C88.8988 12.3257 88.837 11.8673 88.6863 11.4347C88.5357 11.002 88.2992 10.6039 87.991 10.264C87.7189 9.98109 87.3921 9.75597 87.0302 9.60217C86.6684 9.44837 86.2789 9.36909 85.8855 9.36909C85.492 9.36909 85.1026 9.44837 84.7407 9.60217C84.3788 9.75597 84.052 9.98109 83.78 10.264C83.1827 10.9632 82.8835 11.8669 82.9461 12.7825C82.8863 13.7008 83.1768 14.6077 83.7595 15.3222C84.0253 15.6063 84.3486 15.831 84.7082 15.9814C85.0678 16.1319 85.4553 16.2046 85.8453 16.1949V16.1942Z" fill="white"/>
<path d="M110.885 18.0292V6.89755C110.879 6.63356 110.769 6.38255 110.579 6.19815C110.389 6.01375 110.134 5.91057 109.869 5.91064H107.835C107.57 5.91057 107.315 6.01375 107.125 6.19815C106.935 6.38255 106.825 6.63356 106.818 6.89755V18.0248C106.818 18.2937 106.925 18.5517 107.116 18.7425C107.306 18.9332 107.565 19.0413 107.835 19.043H109.868C110.138 19.0415 110.396 18.9341 110.586 18.7443C110.777 18.5545 110.884 18.2975 110.885 18.0292Z" fill="white"/>
<path d="M102.093 9.96012H109.889C110.155 9.95479 110.409 9.84583 110.595 9.65667C110.781 9.4675 110.885 9.21323 110.885 8.94848V6.92521C110.885 6.66114 110.781 6.4075 110.596 6.21848C110.41 6.02946 110.158 5.92003 109.893 5.91357H102.093C101.824 5.91529 101.566 6.02242 101.376 6.21177C101.186 6.40112 101.078 6.65744 101.076 6.92521V8.94848C101.078 9.21626 101.186 9.47257 101.376 9.66192C101.566 9.85127 101.824 9.95841 102.093 9.96012Z" fill="white"/>
<path d="M110.999 2.50901C110.962 1.96554 110.718 1.45653 110.318 1.08481C109.918 0.713088 109.391 0.506348 108.843 0.506348C108.296 0.506348 107.769 0.713088 107.369 1.08481C106.969 1.45653 106.725 1.96554 106.688 2.50901C106.73 3.04907 106.975 3.55335 107.375 3.92117C107.775 4.28899 108.299 4.49329 108.843 4.49329C109.388 4.49329 109.912 4.28899 110.312 3.92117C110.711 3.55335 110.957 3.04907 110.999 2.50901Z" fill="white"/>
<path d="M98.7262 15.1156C98.7262 15.1156 99.0733 15.856 99.3964 16.3985L100.712 18.2495C100.851 18.4928 101.053 18.6944 101.298 18.8333C101.542 18.9723 101.819 19.0434 102.1 19.0393H104.528C104.666 19.0479 104.805 19.016 104.925 18.9475C105.046 18.8789 105.144 18.7768 105.207 18.6535C105.271 18.5303 105.296 18.3913 105.281 18.2537C105.266 18.1162 105.211 17.986 105.122 17.8793C102.47 14.3004 99.6514 10.9702 97.6344 8.03418L96.693 6.67927C96.5487 6.44234 96.3446 6.24709 96.101 6.11288C95.8575 5.97868 95.5828 5.91018 95.3045 5.91418H92.8745C92.7394 5.90753 92.6053 5.94015 92.4885 6.00806C92.3718 6.07597 92.2774 6.17624 92.217 6.29662C92.1565 6.417 92.1326 6.55229 92.1481 6.68598C92.1637 6.81966 92.218 6.94596 92.3044 7.04945L96.1975 12.3295L92.0815 17.8793C91.9934 17.984 91.9377 18.112 91.9212 18.2476C91.9046 18.3832 91.9279 18.5206 91.9882 18.6434C92.0485 18.7661 92.1433 18.8688 92.261 18.939C92.3787 19.0093 92.5144 19.0441 92.6515 19.0393H95.0816C95.3623 19.0406 95.6385 18.9683 95.8823 18.8296C96.126 18.691 96.3288 18.4909 96.4701 18.2495L97.7856 16.3985C98.1072 15.856 98.5048 15.1156 98.5048 15.1156H98.7262Z" fill="#F8425F"/>
<path d="M0.575164 0H20.7834C20.9358 0.000384007 21.0819 0.0608097 21.1896 0.168066C21.2974 0.275321 21.3581 0.420681 21.3585 0.572364V20.6822C21.3581 20.8339 21.2974 20.9792 21.1896 21.0865C21.0819 21.1937 20.9358 21.2542 20.7834 21.2545H11.7335V17.2545H16.557C16.6457 17.2544 16.7307 17.2192 16.7934 17.1568C16.8562 17.0943 16.8915 17.0097 16.8917 16.9215V5.21891C16.8915 5.13063 16.8562 5.04602 16.7934 4.98359C16.7307 4.92117 16.6457 4.88601 16.557 4.88582H4.79863C4.70992 4.88601 4.62489 4.92117 4.56216 4.98359C4.49943 5.04602 4.46411 5.13063 4.46391 5.21891V11.5636H0.28137C0.18688 11.5647 0.09269 11.5744 0 11.5927L0 0.572364C0.000385886 0.420681 0.0611072 0.275321 0.168888 0.168066C0.276668 0.0608097 0.422739 0.000384007 0.575164 0V0ZM9.18289 21.2538H1.2753V14.1047H4.46464V16.9215C4.46484 17.0097 4.50016 17.0943 4.56289 17.1568C4.62562 17.2192 4.71065 17.2544 4.79936 17.2545H9.18435L9.18289 21.2538Z" fill="white"/>
<path d="M10.1768 12.2124H0.28137C0.206746 12.2124 0.135178 12.2419 0.0824113 12.2944C0.0296442 12.3469 0 12.4181 0 12.4924L0 22.3397C0 22.4139 0.0296442 22.4852 0.0824113 22.5377C0.135178 22.5902 0.206746 22.6197 0.28137 22.6197H10.1768C10.2514 22.6197 10.323 22.5902 10.3758 22.5377C10.4285 22.4852 10.4582 22.4139 10.4582 22.3397V12.4924C10.4582 12.4181 10.4285 12.3469 10.3758 12.2944C10.323 12.2419 10.2514 12.2124 10.1768 12.2124Z" fill="#F8425F"/>
</g>
<defs>
<clipPath id="clip0_1429_38161">
<rect width="111" height="24" fill="white"/>
</clipPath>
</defs>
</svg>
