<svg width="64" height="64" viewBox="0 0 64 64" fill="none" xmlns="http://www.w3.org/2000/svg">
<circle cx="32" cy="32" r="32" fill="#F0F9FF"/>
<path d="M29 31C31.2091 31 33 29.2091 33 27C33 24.7909 31.2091 23 29 23C26.7909 23 25 24.7909 25 27C25 29.2091 26.7909 31 29 31Z" fill="#10519C"/>
<path d="M37 33C38.6569 33 40 31.6569 40 30C40 28.3431 38.6569 27 37 27C35.3431 27 34 28.3431 34 30C34 31.6569 35.3431 33 37 33Z" fill="#10519C"/>
<path d="M41 40C41.5523 40 42 39.5523 42 39C41.9984 37.0933 40.9125 35.3535 39.2003 34.5145C37.4882 33.6754 35.4479 33.8831 33.94 35.05C31.9371 33.0549 28.9307 32.4605 26.3192 33.5431C23.7077 34.6258 22.0038 37.173 22 40C22 40.5523 22.4477 41 23 41H35C35.5523 41 36 40.5523 36 40" fill="#10519C"/>
</svg>
