<svg width="114" height="113" viewBox="0 0 114 113" fill="none" xmlns="http://www.w3.org/2000/svg">
<circle cx="57.2949" cy="56.5" r="56.5" fill="white"/>
<path d="M41.7832 44.462H67.5304C68.0942 44.462 68.5532 44.0044 68.5532 43.4405C68.5532 42.8767 68.0942 42.4191 67.5304 42.4191H41.7832C41.2193 42.4191 40.7617 42.8767 40.7617 43.4405C40.7617 44.0039 41.2193 44.462 41.7832 44.462Z" fill="#10519C"/>
<path d="M41.7832 50.0551H67.5304C68.0942 50.0551 68.5532 49.5975 68.5532 49.0337C68.5532 48.4698 68.0942 48.0122 67.5304 48.0122H41.7832C41.2193 48.0122 40.7617 48.4698 40.7617 49.0337C40.7617 49.5975 41.2193 50.0551 41.7832 50.0551Z" fill="#10519C"/>
<path d="M83.6565 36.9422C83.6565 36.9422 83.6539 36.9422 83.6539 36.9409L81.0048 35.3358C79.7598 34.585 78.1362 34.9818 77.3854 36.2236L74.9436 40.2534C74.9431 40.2543 74.9431 40.2556 74.9422 40.2565L72.898 43.6352V37.6979C72.898 36.3198 71.7108 35.1996 70.2517 35.1996H62.357L62.3574 33.2982C62.3574 32.7343 61.8985 32.2767 61.3346 32.2767H59.5646C59.0929 30.0015 57.0623 28.2858 54.6345 28.2858C52.2236 28.2858 50.2058 30.0015 49.7368 32.2767H47.9659C47.4021 32.2767 46.9445 32.7343 46.9445 33.2982V35.2H39.0634C37.6206 35.2 36.402 36.3423 36.402 37.6957V63.3481C32.456 63.8 29.4079 67.1089 29.2907 71.1679C29.2272 73.3404 30.0128 75.407 31.5032 76.9883C32.8117 78.3757 34.5345 79.2041 36.4024 79.4399V82.7477C36.4024 84.1011 37.6209 85.2433 39.0638 85.2433H70.2552C71.7096 85.2433 72.8942 84.1235 72.8942 82.7477V79.324C72.8942 79.3152 72.899 79.3082 72.899 79.2994V59.7999L82.0987 44.5946C82.0991 44.5938 82.1004 44.5929 82.1009 44.592L84.5428 40.5613C85.2962 39.3208 84.8968 37.6967 83.6571 36.942L83.6565 36.9422ZM78.648 46.3526L74.9841 44.1325L76.1608 42.1875L79.8247 44.4081L78.648 46.3526ZM65.5543 67.993L61.8922 65.7738L68.1535 55.4235C68.3493 55.2727 68.4802 55.0589 68.5269 54.8068L73.9265 45.8809L77.5899 48.101L65.5543 67.993ZM45.4748 70.3854C45.3139 69.1079 44.8453 67.903 44.1175 66.8383H59.3983L59.0796 70.3854H45.4748ZM61.3606 67.8413L63.9681 69.4213L61.0498 71.2922L61.3606 67.8413ZM54.6341 30.3287C55.9204 30.3287 56.9952 31.1465 57.4158 32.2768H51.8805C52.2971 31.1465 53.3612 30.3287 54.6339 30.3287H54.6341ZM48.9868 34.3197H60.3109V38.1034H48.9868V34.3197ZM39.0628 37.2429H46.9439V39.1249C46.9439 39.6887 47.4015 40.1463 47.9653 40.1463H61.3344C61.8982 40.1463 62.3571 39.6887 62.3571 39.1249V37.2429H70.2518C70.5961 37.2429 70.8531 37.4836 70.8531 37.6983V47.0165L66.8661 53.6063H41.7915C41.2277 53.6063 40.7701 54.0639 40.7701 54.6277C40.7701 55.1916 41.2277 55.6492 41.7915 55.6492H65.6292L63.4734 59.2121H41.7879C41.2241 59.2121 40.7665 59.6697 40.7665 60.2335C40.7665 60.7974 41.2241 61.255 41.7879 61.255H62.2376L60.0951 64.7959H42.1328C41.0448 64.0226 39.7769 63.5496 38.4451 63.3782V37.6953C38.4451 37.4907 38.7206 37.2425 39.0636 37.2425L39.0628 37.2429ZM31.333 71.2276C31.4291 67.93 34.1429 65.3136 37.422 65.3136C37.4819 65.3136 37.5419 65.3136 37.6027 65.3163C39.3088 65.3674 40.8703 66.1005 41.998 67.3829C43.0207 68.5441 43.5581 70.0369 43.5132 71.5859C43.4581 73.4962 42.4988 75.1669 41.0837 76.2471C41.0647 76.2638 41.0427 76.2748 41.0251 76.2929C39.9617 77.0842 38.6555 77.5542 37.2448 77.4978C35.6172 77.4502 34.1068 76.7708 32.9893 75.5871C31.8731 74.403 31.2846 72.8538 31.333 71.2275L31.333 71.2276ZM70.8522 79.2872C70.8522 79.296 70.8473 79.303 70.8473 79.3118V82.7478C70.8473 82.9611 70.593 83.2005 70.2535 83.2005H39.0621C38.7191 83.2005 38.4435 82.9523 38.4435 82.7478V79.4423C39.796 79.2699 41.0463 78.7819 42.1119 78.0246H67.5013C68.0652 78.0246 68.5241 77.567 68.5241 77.0031C68.5241 76.4393 68.0652 75.9817 67.5013 75.9817L44.1354 75.9821C44.8425 74.9479 45.2873 73.7347 45.4536 72.4289H58.8937L58.8254 73.1872C58.7906 73.5765 58.9801 73.9508 59.3116 74.1527C59.4765 74.2523 59.6586 74.3012 59.8429 74.3012C60.0351 74.3012 60.2268 74.2474 60.3939 74.1403L63.062 72.4294H67.5203C68.0841 72.4294 68.543 71.9718 68.543 71.408C68.543 70.8441 68.0841 70.3865 67.5203 70.3865H66.2476L66.4477 70.2582C66.5725 70.178 66.673 70.0687 66.7519 69.9448C66.7568 69.9377 66.7651 69.9351 66.7696 69.9276C66.77 69.9267 66.77 69.9254 66.7709 69.9245L70.8504 63.1817L70.8522 79.2872ZM82.7947 39.5027L80.8819 42.6592L79.6326 41.9019L77.2203 40.4391L79.1309 37.2826C79.3007 37.0023 79.66 36.9123 79.9465 37.0843L82.5929 38.6881C82.8724 38.8578 82.9619 39.2246 82.7948 39.5028L82.7947 39.5027Z" fill="#10519C"/>
<path d="M40.0159 74.9569V68.3735H38.6737V72.5091L35.753 68.3735H34.373V74.9569H35.7152V70.6634L38.721 74.9569H40.0159Z" fill="#10519C"/>
<rect x="33.4336" y="70.777" width="7.52381" height="0.835979" fill="#10519C"/>
<rect x="33.4336" y="72.449" width="7.52381" height="0.835979" fill="#10519C"/>
</svg>
