<svg width="113" height="113" viewBox="0 0 113 113" fill="none" xmlns="http://www.w3.org/2000/svg">
<circle cx="56.5" cy="56.5" r="56.5" fill="white"/>
<path d="M73.4833 45.1208H33.5197V41.8825C33.5197 40.6333 34.5469 39.606 35.7961 39.606H46.1253C45.6613 40.5581 44.6849 41.2142 43.5545 41.2142C41.911 41.2142 41.911 43.713 43.5545 43.713C46.0821 43.713 48.2014 41.9614 48.7641 39.6061H66.0186C65.5553 40.5582 64.5782 41.2143 63.4478 41.2143C61.8047 41.2143 61.8047 43.7131 63.4478 43.7131C65.9761 43.7131 68.0947 41.9615 68.6574 39.6062H71.2063C72.4558 39.6062 73.4827 40.6334 73.4827 41.8826V45.121L73.4833 45.1208ZM69.3623 54.4226C71.0073 54.4226 71.0073 51.9246 69.3623 51.9246H66.0897C64.4447 51.9246 64.4447 54.4226 66.0897 54.4226H69.3623ZM69.3623 68.9979C71.0073 68.9979 71.0073 66.4991 69.3623 66.4991H66.0897C64.4447 66.4991 64.4447 68.9979 66.0897 68.9979H69.3623ZM40.914 68.9979C42.559 68.9979 42.559 66.4991 40.914 66.4991H37.6415C35.9964 66.4991 35.9964 68.9979 37.6415 68.9979H40.914ZM50.3972 68.9979C52.0422 68.9979 52.0422 66.4991 50.3972 66.4991H47.1246C45.4796 66.4991 45.4796 68.9979 47.1246 68.9979H50.3972ZM59.8796 68.9979C61.5246 68.9979 61.5246 66.4991 59.8796 66.4991H56.6078C54.9628 66.4991 54.9628 68.9979 56.6078 68.9979H59.8796ZM69.3628 64.1396C71.0078 64.1396 71.0078 61.6408 69.3628 61.6408H66.0902C64.4452 61.6408 64.4452 64.1396 66.0902 64.1396H69.3628ZM40.9145 64.1396C42.5595 64.1396 42.5595 61.6408 40.9145 61.6408H37.6419C35.9969 61.6408 35.9969 64.1396 37.6419 64.1396H40.9145ZM50.3977 64.1396C52.0427 64.1396 52.0427 61.6408 50.3977 61.6408H47.1251C45.4801 61.6408 45.4801 64.1396 47.1251 64.1396H50.3977ZM59.8801 64.1396C61.5251 64.1396 61.5251 61.6408 59.8801 61.6408H56.6083C54.9633 61.6408 54.9633 64.1396 56.6083 64.1396H59.8801ZM69.3633 59.2813C71.0083 59.2813 71.0083 56.7825 69.3633 56.7825H66.0907C64.4457 56.7825 64.4457 59.2813 66.0907 59.2813H69.3633ZM40.915 59.2813C42.56 59.2813 42.56 56.7825 40.915 56.7825H37.6424C35.9974 56.7825 35.9974 59.2813 37.6424 59.2813H40.915ZM50.3982 59.2813C52.0432 59.2813 52.0432 56.7825 50.3982 56.7825H47.1256C45.4806 56.7825 45.4806 59.2813 47.1256 59.2813H50.3982ZM59.8806 59.2813C61.5256 59.2813 61.5256 56.7825 59.8806 56.7825H56.6088C54.9638 56.7825 54.9638 59.2813 56.6088 59.2813H59.8806ZM40.9154 54.4226C42.5604 54.4226 42.5604 51.9246 40.9154 51.9246H37.6428C35.9978 51.9246 35.9978 54.4226 37.6428 54.4226H40.9154ZM50.3986 54.4226C52.0436 54.4226 52.0436 51.9246 50.3986 51.9246H47.126C45.481 51.9246 45.481 54.4226 47.126 54.4226H50.3986ZM59.881 54.4226C61.526 54.4226 61.526 51.9246 59.881 51.9246H56.6092C54.9642 51.9246 54.9642 54.4226 56.6092 54.4226H59.881ZM68.6599 37.1069C68.0971 34.7516 65.9785 33 63.4502 33C60.9225 33 58.8033 34.7516 58.2405 37.1069H48.7665C48.2037 34.7516 46.0844 33 43.5568 33C41.0291 33 38.9099 34.7516 38.3471 37.1069H35.7983C33.169 37.1069 31.0231 39.2528 31.0231 41.8821V77.0361C31.0231 79.6647 33.169 81.8113 35.7983 81.8113H77.2248C79.8541 81.8113 82 79.6646 82 77.0361V74.5514C82 73.8612 81.4403 73.3018 80.7505 73.3018H75.9844V41.882C75.9844 39.2527 73.8385 37.1068 71.2093 37.1068L68.6599 37.1069ZM60.8797 37.1069C61.3438 36.1548 62.3201 35.4987 63.4506 35.4987C64.5806 35.4987 65.5581 36.1548 66.0215 37.1069H60.8797ZM40.9868 37.1069C41.4509 36.1548 42.4272 35.4987 43.5577 35.4987C44.6877 35.4987 45.6645 36.1548 46.1285 37.1069H40.9868ZM73.4859 73.3014H39.3256C38.6354 73.3014 38.0761 73.8611 38.0761 74.5509V77.0356C38.0761 78.2848 37.0493 79.3121 35.7996 79.3121C34.5505 79.3121 33.5232 78.2849 33.5232 77.0356V47.6188H73.4868V73.3015L73.4859 73.3014ZM77.2255 79.3121H39.9945C40.3642 78.6343 40.5748 77.8587 40.5748 77.0356V75.8001H79.5018V77.0356C79.5018 78.2848 78.4747 79.3121 77.2254 79.3121H77.2255Z" fill="#10519C"/>
</svg>
