<svg width="479" height="112" viewBox="0 0 479 112" fill="none" xmlns="http://www.w3.org/2000/svg">
<rect width="479" height="112" rx="49" fill="#F5F9FD"/>
<path d="M69.248 65V43.656H62.848L57.664 57L52.48 43.656H46.112V65H50.656V49.608L56.672 65H58.656L64.672 49.608V65H69.248ZM86.767 65V55.016C86.767 50.568 83.535 49.16 79.983 49.16C77.551 49.16 75.119 49.896 73.231 51.592L74.831 54.44C76.111 53.256 77.647 52.616 79.279 52.616C81.327 52.616 82.671 53.64 82.671 55.208V57.16C81.647 55.944 79.855 55.272 77.775 55.272C75.311 55.272 72.431 56.616 72.431 60.264C72.431 63.72 75.311 65.384 77.775 65.384C79.791 65.384 81.615 64.648 82.671 63.368V65H86.767ZM79.407 62.632C77.807 62.632 76.495 61.8 76.495 60.328C76.495 58.856 77.807 57.992 79.407 57.992C80.719 57.992 81.999 58.472 82.671 59.368V61.288C81.999 62.184 80.719 62.632 79.407 62.632ZM90.254 71.016C90.734 71.176 91.79 71.272 92.238 71.272C94.894 71.208 96.942 70.44 98.094 67.528L105.358 49.544H101.006L96.942 60.296L92.91 49.544H88.558L94.83 65.192L94.254 66.536C93.87 67.368 93.166 67.656 92.11 67.656C91.726 67.656 91.182 67.56 90.83 67.4L90.254 71.016ZM123.103 65.384C128.831 65.384 131.647 62.44 131.647 58.536C131.647 50.568 119.391 52.84 119.391 49.48C119.391 48.2 120.479 47.368 122.399 47.368C124.575 47.368 126.879 48.104 128.607 49.704L131.135 46.312C129.023 44.36 126.207 43.336 122.815 43.336C117.791 43.336 114.719 46.28 114.719 49.832C114.719 57.864 127.007 55.272 127.007 58.984C127.007 60.232 125.823 61.352 123.295 61.352C120.351 61.352 118.015 60.008 116.511 58.44L114.015 61.992C116.031 64.008 118.975 65.384 123.103 65.384ZM149.075 65V49.544H145.011V60.008C144.307 60.904 143.059 61.768 141.491 61.768C139.763 61.768 138.643 61.064 138.643 58.92V49.544H134.579V60.52C134.579 63.528 136.179 65.384 139.571 65.384C142.099 65.384 143.955 64.2 145.011 63.048V65H149.075ZM176.374 65V53.832C176.374 50.664 174.678 49.16 171.83 49.16C169.462 49.16 167.414 50.568 166.518 51.944C165.974 50.216 164.502 49.16 162.23 49.16C159.862 49.16 157.846 50.632 157.174 51.528V49.544H153.11V65H157.174V54.568C157.782 53.736 158.966 52.776 160.374 52.776C162.038 52.776 162.678 53.8 162.678 55.24V65H166.774V54.568C167.35 53.736 168.534 52.776 169.974 52.776C171.638 52.776 172.278 53.8 172.278 55.24V65H176.374ZM203.655 65V53.832C203.655 50.664 201.959 49.16 199.111 49.16C196.743 49.16 194.695 50.568 193.799 51.944C193.255 50.216 191.783 49.16 189.511 49.16C187.143 49.16 185.127 50.632 184.455 51.528V49.544H180.391V65H184.455V54.568C185.063 53.736 186.247 52.776 187.655 52.776C189.319 52.776 189.959 53.8 189.959 55.24V65H194.055V54.568C194.631 53.736 195.815 52.776 197.255 52.776C198.919 52.776 199.559 53.8 199.559 55.24V65H203.655ZM221.048 65V55.016C221.048 50.568 217.816 49.16 214.264 49.16C211.832 49.16 209.4 49.896 207.512 51.592L209.112 54.44C210.392 53.256 211.928 52.616 213.56 52.616C215.608 52.616 216.952 53.64 216.952 55.208V57.16C215.928 55.944 214.136 55.272 212.056 55.272C209.592 55.272 206.712 56.616 206.712 60.264C206.712 63.72 209.592 65.384 212.056 65.384C214.072 65.384 215.896 64.648 216.952 63.368V65H221.048ZM213.688 62.632C212.088 62.632 210.776 61.8 210.776 60.328C210.776 58.856 212.088 57.992 213.688 57.992C215 57.992 216.28 58.472 216.952 59.368V61.288C216.28 62.184 215 62.632 213.688 62.632ZM229.111 65V54.792C229.783 53.8 231.575 53.032 232.919 53.032C233.399 53.032 233.751 53.064 234.039 53.128V49.16C232.119 49.16 230.231 50.28 229.111 51.624V49.544H225.047V65H229.111ZM236.067 71.016C236.547 71.176 237.603 71.272 238.051 71.272C240.707 71.208 242.755 70.44 243.907 67.528L251.171 49.544H246.819L242.755 60.296L238.723 49.544H234.37L240.643 65.192L240.067 66.536C239.683 67.368 238.979 67.656 237.923 67.656C237.539 67.656 236.995 67.56 236.643 67.4L236.067 71.016Z" fill="#637381"/>
<path d="M322.934 61V48.994H320.378V56.536L314.816 48.994H312.188V61H314.744V53.17L320.468 61H322.934ZM329.207 61.216C332.087 61.216 333.941 59.758 333.941 57.688C333.941 55.888 332.357 54.934 331.133 54.808C332.465 54.574 333.761 53.584 333.761 52.072C333.761 50.074 332.033 48.814 329.225 48.814C327.119 48.814 325.607 49.624 324.635 50.722L325.913 52.324C326.759 51.514 327.803 51.082 328.973 51.082C330.215 51.082 331.205 51.55 331.205 52.504C331.205 53.386 330.305 53.782 328.973 53.782C328.523 53.782 327.695 53.782 327.479 53.764V56.068C327.659 56.05 328.469 56.032 328.973 56.032C330.647 56.032 331.385 56.464 331.385 57.418C331.385 58.318 330.575 58.948 329.117 58.948C327.947 58.948 326.633 58.444 325.823 57.58L324.473 59.29C325.355 60.37 327.011 61.216 329.207 61.216ZM338.548 60.118C338.548 58.948 337.792 58.282 336.946 58.282C336.172 58.282 335.524 58.93 335.524 59.722C335.524 60.478 336.064 61.018 336.748 61.018C336.892 61.018 337.036 60.982 337.09 60.964C336.946 61.594 336.28 62.35 335.704 62.656L336.694 63.466C337.81 62.674 338.548 61.468 338.548 60.118ZM344.459 61.216C347.897 61.216 349.427 58.102 349.427 55.006C349.427 51.91 347.897 48.814 344.459 48.814C341.021 48.814 339.491 51.91 339.491 55.006C339.491 58.102 341.021 61.216 344.459 61.216ZM344.459 58.948C342.749 58.948 342.101 57.22 342.101 55.006C342.101 52.792 342.749 51.082 344.459 51.082C346.187 51.082 346.817 52.792 346.817 55.006C346.817 57.22 346.169 58.948 344.459 58.948ZM355.621 61.216C359.059 61.216 360.589 58.102 360.589 55.006C360.589 51.91 359.059 48.814 355.621 48.814C352.183 48.814 350.653 51.91 350.653 55.006C350.653 58.102 352.183 61.216 355.621 61.216ZM355.621 58.948C353.911 58.948 353.263 57.22 353.263 55.006C353.263 52.792 353.911 51.082 355.621 51.082C357.349 51.082 357.979 52.792 357.979 55.006C357.979 57.22 357.331 58.948 355.621 58.948ZM366.783 61.216C370.221 61.216 371.751 58.102 371.751 55.006C371.751 51.91 370.221 48.814 366.783 48.814C363.345 48.814 361.815 51.91 361.815 55.006C361.815 58.102 363.345 61.216 366.783 61.216ZM366.783 58.948C365.073 58.948 364.425 57.22 364.425 55.006C364.425 52.792 365.073 51.082 366.783 51.082C368.511 51.082 369.141 52.792 369.141 55.006C369.141 57.22 368.493 58.948 366.783 58.948ZM377.945 61.216C381.383 61.216 382.913 58.102 382.913 55.006C382.913 51.91 381.383 48.814 377.945 48.814C374.507 48.814 372.977 51.91 372.977 55.006C372.977 58.102 374.507 61.216 377.945 61.216ZM377.945 58.948C376.235 58.948 375.587 57.22 375.587 55.006C375.587 52.792 376.235 51.082 377.945 51.082C379.673 51.082 380.303 52.792 380.303 55.006C380.303 57.22 379.655 58.948 377.945 58.948ZM387.011 60.118C387.011 58.948 386.255 58.282 385.409 58.282C384.635 58.282 383.987 58.93 383.987 59.722C383.987 60.478 384.527 61.018 385.211 61.018C385.355 61.018 385.499 60.982 385.553 60.964C385.409 61.594 384.743 62.35 384.167 62.656L385.157 63.466C386.273 62.674 387.011 61.468 387.011 60.118ZM392.922 61.216C396.36 61.216 397.89 58.102 397.89 55.006C397.89 51.91 396.36 48.814 392.922 48.814C389.484 48.814 387.954 51.91 387.954 55.006C387.954 58.102 389.484 61.216 392.922 61.216ZM392.922 58.948C391.212 58.948 390.564 57.22 390.564 55.006C390.564 52.792 391.212 51.082 392.922 51.082C394.65 51.082 395.28 52.792 395.28 55.006C395.28 57.22 394.632 58.948 392.922 58.948ZM404.084 61.216C407.522 61.216 409.052 58.102 409.052 55.006C409.052 51.91 407.522 48.814 404.084 48.814C400.646 48.814 399.116 51.91 399.116 55.006C399.116 58.102 400.646 61.216 404.084 61.216ZM404.084 58.948C402.374 58.948 401.726 57.22 401.726 55.006C401.726 52.792 402.374 51.082 404.084 51.082C405.812 51.082 406.442 52.792 406.442 55.006C406.442 57.22 405.794 58.948 404.084 58.948ZM415.246 61.216C418.684 61.216 420.214 58.102 420.214 55.006C420.214 51.91 418.684 48.814 415.246 48.814C411.808 48.814 410.278 51.91 410.278 55.006C410.278 58.102 411.808 61.216 415.246 61.216ZM415.246 58.948C413.536 58.948 412.888 57.22 412.888 55.006C412.888 52.792 413.536 51.082 415.246 51.082C416.974 51.082 417.604 52.792 417.604 55.006C417.604 57.22 416.956 58.948 415.246 58.948Z" fill="#637381"/>
</svg>
